<svg width="49" height="50" viewBox="0 0 49 50" fill="none" xmlns="http://www.w3.org/2000/svg">
<path fill-rule="evenodd" clip-rule="evenodd" d="M36.3757 39.478C33.5092 41.8983 29.8866 43.4511 25.9126 43.7315V48.7584H25.7863C25.8028 49.0805 25.688 49.4081 25.442 49.6541C24.9808 50.1153 24.2332 50.1153 23.772 49.6541C23.526 49.4081 23.4112 49.0805 23.4277 48.7584H23.3362V43.7337C19.2235 43.4503 15.4856 41.8043 12.5706 39.2438L9.14853 42.666C9.10428 42.7216 9.055 42.7773 9.00044 42.8327C7.60489 44.2497 5.97317 42.1671 7.15402 41.0077C7.1853 40.977 7.21719 40.9482 7.24962 40.9213L10.759 37.4119C8.27071 34.5146 6.67586 30.8277 6.40181 26.7785H1.64431C1.56019 26.7902 1.47089 26.7967 1.37631 26.7974C-0.574956 26.8123 -0.304893 24.2844 1.26886 24.2033V24.2021H1.2976C1.31855 24.2014 1.33973 24.2012 1.36113 24.2014C1.37307 24.2015 1.38494 24.2017 1.39675 24.2021H6.40704C6.69237 20.2277 8.25041 16.6057 10.6757 13.7415L7.13255 10.1983L7.22187 10.1089C6.98244 9.89283 6.83197 9.58004 6.83197 9.23211C6.83197 8.57994 7.36065 8.05126 8.01282 8.05126C8.36075 8.05126 8.67354 8.20174 8.88965 8.44116L8.95434 8.37647L12.4747 11.8968C15.6995 9.02396 19.9505 7.27834 24.6091 7.27834C29.1137 7.27834 33.2371 8.9104 36.4203 11.6155L39.6839 8.35184L39.7733 8.44116C39.9894 8.20173 40.3022 8.05126 40.6501 8.05126C41.3023 8.05126 41.8309 8.57994 41.8309 9.23211C41.8309 9.58004 41.6805 9.89283 41.441 10.1089L41.5057 10.1736L38.2618 13.4176C40.8491 16.3323 42.5173 20.0814 42.8118 24.2104H47.1637C47.2478 24.1987 47.3371 24.1922 47.4317 24.1915C49.3829 24.1766 49.1129 26.7045 47.5391 26.7856V26.7868H47.5104C47.4894 26.7875 47.4683 26.7877 47.4469 26.7875C47.4349 26.7874 47.423 26.7872 47.4112 26.7868H42.8159C42.5316 30.9595 40.8447 34.7471 38.2229 37.6817L41.5304 40.9891L41.441 41.0784C41.6805 41.2945 41.8309 41.6073 41.8309 41.9553C41.8309 42.6074 41.3023 43.1361 40.6501 43.1361C40.3022 43.1361 39.9894 42.9856 39.7733 42.7462L39.7086 42.8109L36.3757 39.478ZM40.2823 25.5279C40.2823 34.1839 33.2652 41.201 24.6091 41.201C15.9531 41.201 8.93603 34.1839 8.93603 25.5279C8.93603 16.8718 15.9531 9.85474 24.6091 9.85474C33.2652 9.85474 40.2823 16.8718 40.2823 25.5279Z" fill="#EF8354"/>
<path d="M21.7966 30.9383C21.6076 32.6559 21.8753 33.4718 22.0327 33.665C22.0327 32.5657 23.2923 30.6163 23.9221 29.7789C24.5948 28.9845 26.6059 27.1123 27.9799 25.8928C29.354 24.6733 30.9142 22.3575 31.5225 21.2768C33.4462 18.374 32.6461 15.0147 32.1666 13.7838C31.6227 12.4956 30.1999 10.5031 28.0014 7.94391C25.8029 5.38468 25.5109 1.17369 25.7471 0C23.3209 1.5029 21.9683 3.32785 21.9683 5.77544C21.9683 8.10501 24.8238 12.9679 26.0906 16.2957C27.104 18.958 26.0977 21.8135 25.4679 22.9085C24.3229 24.8694 21.9855 29.2207 21.7966 30.9383Z" fill="#9A8873"/>
<path d="M23.7933 32.4197C23.0547 36.0439 25.3248 38.8679 26.4556 39.8698C26.1808 38.616 27.4647 37.0501 27.7867 36.5849C29.281 34.9188 30.6208 33.7565 31.6728 32.8491C32.2453 32.3553 33.648 30.831 33.9915 27.911C34.3351 24.9911 33.3761 22.0855 32.8536 20.9977C32.5173 22.2429 31.0759 25.326 28.0014 27.6963C24.9269 30.0666 23.8505 31.8615 23.7933 32.4197Z" fill="#CCE3DE"/>
<path d="M14.9047 28.0613C14.8188 33.4202 20.0074 37.4222 22.6124 38.7534C20.8433 36.28 20.4368 33.2857 20.2937 32.0977C20.2006 31.1959 20.1176 28.7312 21.818 26.0861C23.5185 23.441 24.8811 20.9118 24.9097 20.0101C25.717 16.4203 22.548 14.0414 21.3028 13.2685C22.1787 15.9308 20.3652 18.6431 19.349 19.6665C15.639 22.8269 14.8403 26.5799 14.9047 28.0613Z" fill="#CCE3DE"/>
<path d="M23.7933 32.4197C23.0547 36.0439 25.3248 38.8679 26.4556 39.8698C26.1808 38.616 27.4647 37.0501 27.7867 36.5849C29.281 34.9188 30.6208 33.7565 31.6728 32.8491C32.2453 32.3553 33.648 30.831 33.9915 27.911C34.3351 24.9911 33.3761 22.0855 32.8536 20.9977C32.5173 22.2429 31.0759 25.326 28.0014 27.6963C24.9269 30.0666 23.8505 31.8615 23.7933 32.4197Z" fill="#6B9080"/>
</svg>
