<svg width="34" height="39" viewBox="0 0 34 39" fill="none" xmlns="http://www.w3.org/2000/svg">
<path d="M13.4834 16.3005C12.376 16.3005 11.5017 17.272 11.5017 18.4571C11.5017 19.6423 12.3954 20.6137 13.4834 20.6137C14.5909 20.6137 15.4651 19.6423 15.4651 18.4571C15.4846 17.272 14.5909 16.3005 13.4834 16.3005ZM20.5749 16.3005C19.4674 16.3005 18.5931 17.272 18.5931 18.4571C18.5931 19.6423 19.4869 20.6137 20.5749 20.6137C21.6823 20.6137 22.5566 19.6423 22.5566 18.4571C22.5566 17.272 21.6823 16.3005 20.5749 16.3005Z" fill="#CCE3DE"/>
<path d="M30.0171 -2.28882e-05H3.98286C1.78743 -2.28882e-05 0 1.78741 0 4.00226V30.2697C0 32.4846 1.78743 34.272 3.98286 34.272H26.0149L24.9851 30.6777L27.472 32.9897L29.8229 35.1657L34 38.8571V4.00226C34 1.78741 32.2126 -2.28882e-05 30.0171 -2.28882e-05ZM22.5177 25.3737C22.5177 25.3737 21.8183 24.5383 21.2354 23.8C23.7806 23.0811 24.752 21.488 24.752 21.488C23.9554 22.0126 23.1977 22.3817 22.5177 22.6343C21.5463 23.0423 20.6137 23.3143 19.7006 23.4697C17.8354 23.8194 16.1257 23.7223 14.6686 23.4503C13.5611 23.2365 12.6091 22.9257 11.8126 22.6148C11.3657 22.44 10.88 22.2263 10.3943 21.9543C10.336 21.9154 10.2777 21.896 10.2194 21.8571C10.1806 21.8377 10.1611 21.8183 10.1417 21.7988C9.792 21.6045 9.59771 21.4685 9.59771 21.4685C9.59771 21.4685 10.5303 23.0228 12.9977 23.7611C12.4149 24.4994 11.696 25.3737 11.696 25.3737C7.40229 25.2377 5.77029 22.4205 5.77029 22.4205C5.77029 16.1645 8.568 11.0937 8.568 11.0937C11.3657 8.99541 14.0274 9.05369 14.0274 9.05369L14.2217 9.28684C10.7246 10.2971 9.112 11.832 9.112 11.832C9.112 11.832 9.53943 11.5988 10.2583 11.2685C12.3371 10.3554 13.9886 10.1028 14.6686 10.0445C14.7851 10.0251 14.8823 10.0057 14.9989 10.0057C16.184 9.85026 17.5246 9.81141 18.9234 9.96684C20.7691 10.1805 22.7509 10.7245 24.7714 11.832C24.7714 11.832 23.2366 10.3748 19.9337 9.36455L20.2057 9.05369C20.2057 9.05369 22.8674 8.99541 25.6651 11.0937C25.6651 11.0937 28.4629 16.1645 28.4629 22.4205C28.4629 22.4205 26.8114 25.2377 22.5177 25.3737V25.3737Z" fill="#CCE3DE"/>
</svg>
