<svg width="35" height="36" viewBox="0 0 35 36" fill="none" xmlns="http://www.w3.org/2000/svg">
<path d="M17.5103 3.15319C22.1888 3.15319 22.7428 3.17371 24.5828 3.25579C26.2927 3.33103 27.2161 3.61831 27.8317 3.85771C28.6457 4.17234 29.2339 4.55538 29.8427 5.16414C30.4583 5.77973 30.8345 6.36113 31.1491 7.17508C31.3885 7.79067 31.6758 8.72091 31.751 10.4241C31.8331 12.2708 31.8536 12.8249 31.8536 17.4966C31.8536 22.1751 31.8331 22.7291 31.751 24.5691C31.6758 26.279 31.3885 27.2024 31.1491 27.818C30.8345 28.632 30.4514 29.2202 29.8427 29.829C29.2271 30.4446 28.6457 30.8208 27.8317 31.1354C27.2161 31.3748 26.2859 31.6621 24.5828 31.7373C22.736 31.8194 22.1819 31.8399 17.5103 31.8399C12.8317 31.8399 12.2777 31.8194 10.4378 31.7373C8.72777 31.6621 7.80438 31.3748 7.18878 31.1354C6.37483 30.8208 5.78659 30.4377 5.17784 29.829C4.56224 29.2134 4.18605 28.632 3.87141 27.818C3.63201 27.2024 3.34473 26.2722 3.26949 24.5691C3.18741 22.7223 3.16689 22.1682 3.16689 17.4966C3.16689 12.818 3.18741 12.264 3.26949 10.4241C3.34473 8.71407 3.63201 7.79067 3.87141 7.17508C4.18605 6.36113 4.56908 5.77289 5.17784 5.16414C5.79343 4.54854 6.37483 4.17234 7.18878 3.85771C7.80438 3.61831 8.73461 3.33103 10.4378 3.25579C12.2777 3.17371 12.8317 3.15319 17.5103 3.15319ZM17.5103 -2.28882e-05C12.7565 -2.28882e-05 12.1614 0.0204969 10.2941 0.102576C8.43365 0.184656 7.15458 0.485613 6.04651 0.91653C4.89056 1.36797 3.91245 1.96304 2.94118 2.94115C1.96306 3.91243 1.36799 4.89054 0.916553 6.03965C0.485636 7.15456 0.184679 8.42679 0.102599 10.2873C0.0205198 12.1614 0 12.7565 0 17.5102C0 22.264 0.0205198 22.8591 0.102599 24.7264C0.184679 26.5868 0.485636 27.8659 0.916553 28.974C1.36799 30.1299 1.96306 31.108 2.94118 32.0793C3.91245 33.0506 4.89056 33.6525 6.03967 34.0971C7.15458 34.528 8.42681 34.829 10.2873 34.9111C12.1546 34.9931 12.7497 35.0137 17.5034 35.0137C22.2572 35.0137 22.8523 34.9931 24.7196 34.9111C26.58 34.829 27.8591 34.528 28.9672 34.0971C30.1163 33.6525 31.0944 33.0506 32.0657 32.0793C33.0369 31.108 33.6388 30.1299 34.0834 28.9808C34.5144 27.8659 34.8153 26.5937 34.8974 24.7332C34.9795 22.8659 35 22.2708 35 17.5171C35 12.7633 34.9795 12.1682 34.8974 10.3009C34.8153 8.44047 34.5144 7.1614 34.0834 6.05333C33.6525 4.89054 33.0575 3.91243 32.0793 2.94115C31.1081 1.96988 30.13 1.36797 28.9808 0.92337C27.8659 0.492453 26.5937 0.191496 24.7332 0.109416C22.8591 0.020497 22.264 -2.28882e-05 17.5103 -2.28882e-05Z" fill="#CCE3DE"/>
<path d="M17.5103 8.51571C12.5445 8.51571 8.51575 12.5444 8.51575 17.5102C8.51575 22.476 12.5445 26.5048 17.5103 26.5048C22.4761 26.5048 26.5048 22.476 26.5048 17.5102C26.5048 12.5444 22.4761 8.51571 17.5103 8.51571ZM17.5103 23.3447C14.2887 23.3447 11.6758 20.7319 11.6758 17.5102C11.6758 14.2886 14.2887 11.6758 17.5103 11.6758C20.7319 11.6758 23.3447 14.2886 23.3447 17.5102C23.3447 20.7319 20.7319 23.3447 17.5103 23.3447Z" fill="#CCE3DE"/>
<path d="M28.9603 8.15997C28.9603 9.32276 28.0164 10.2598 26.8605 10.2598C25.6977 10.2598 24.7606 9.31592 24.7606 8.15997C24.7606 6.99718 25.7045 6.0601 26.8605 6.0601C28.0164 6.0601 28.9603 7.00402 28.9603 8.15997Z" fill="#CCE3DE"/>
</svg>
