<svg width="35" height="35" viewBox="0 0 35 35" fill="none" xmlns="http://www.w3.org/2000/svg">
<path d="M32.4092 -2.28882e-05H2.58398C1.15527 -2.28882e-05 0 1.12791 0 2.52244V32.4707C0 33.8652 1.15527 35 2.58398 35H32.4092C33.8379 35 35 33.8652 35 32.4775V2.52244C35 1.12791 33.8379 -2.28882e-05 32.4092 -2.28882e-05ZM10.3838 29.8252H5.18848V13.1181H10.3838V29.8252ZM7.78613 10.8418C6.11816 10.8418 4.77148 9.49509 4.77148 7.83396C4.77148 6.17283 6.11816 4.82615 7.78613 4.82615C9.44727 4.82615 10.7939 6.17283 10.7939 7.83396C10.7939 9.48826 9.44727 10.8418 7.78613 10.8418ZM29.8252 29.8252H24.6367V21.7041C24.6367 19.7695 24.6025 17.2744 21.9365 17.2744C19.2363 17.2744 18.8262 19.3867 18.8262 21.5674V29.8252H13.6445V13.1181H18.6211V15.4013H18.6895C19.3799 14.0888 21.0752 12.7011 23.5977 12.7011C28.8545 12.7011 29.8252 16.1601 29.8252 20.6582V29.8252V29.8252Z" fill="#CCE3DE"/>
</svg>
