<svg width="500" height="297" viewBox="0 0 500 297" fill="none" xmlns="http://www.w3.org/2000/svg">
<path d="M150.087 217.583C150.087 217.583 145.566 219.55 151.077 229.119C156.588 238.688 160.309 243.378 160.309 243.378C160.309 243.378 161.314 245.579 159.414 246.064C157.513 246.548 153.249 246.064 152.516 248.449C151.782 250.834 153.638 253.138 157.33 254.973C161.021 256.807 168.961 261.122 169.68 261.519C170.399 261.915 171.148 262.927 169.871 263.441C168.594 263.955 159.164 265.437 160.133 269.884C161.102 274.331 172.227 277.744 173.438 278.148C174.648 278.551 174.957 279.028 174.905 279.681C174.854 280.334 171.618 280.54 168.946 281.068C166.275 281.597 163.266 282.683 164.037 285.2C164.808 287.717 171.552 292.751 187.337 293.485L194.675 293.353L198.344 286.961C205.367 272.805 204.252 264.469 202.425 262.568C200.597 260.667 198.19 262.766 196.429 264.85C194.668 266.934 192.929 269.65 192.327 269.385C191.725 269.121 191.446 268.615 191.681 267.367C191.916 266.12 194.338 254.738 190.947 251.729C187.557 248.72 181.642 256.271 180.593 257.108C179.543 257.945 178.993 256.807 179 256C179.007 255.193 179.088 246.152 179.279 242.057C179.47 237.962 178.457 235.217 175.918 234.674C173.379 234.131 171.801 238.101 170.48 239.547C169.159 240.993 167.699 239.026 167.699 239.026C167.699 239.026 165.409 233.493 159.722 224.026C154.035 214.56 150.035 217.656 150.035 217.656" fill="#EBEBEB"/>
<path d="M195.13 295.077C190.977 288.106 183.814 275.594 177.606 264.887C171.398 254.18 165.776 244.493 161.667 237.5C159.605 234.014 157.946 231.189 156.787 229.229L155.458 226.976L155.121 226.389L155.011 226.184C155.011 226.184 155.062 226.25 155.143 226.375C155.224 226.499 155.348 226.705 155.502 226.954L156.86 229.156C158.042 231.093 159.729 233.904 161.806 237.39C165.952 244.361 171.603 254.041 177.804 264.74C184.005 275.44 191.153 287.974 195.27 294.967" fill="#E0E0E0"/>
<path d="M158.452 249.351C158.627 249.372 158.8 249.411 158.966 249.469C159.296 249.557 159.773 249.696 160.353 249.88C161.52 250.239 163.112 250.782 164.866 251.406L169.343 253.028L170.7 253.542C170.87 253.592 171.035 253.659 171.192 253.74C171.015 253.724 170.84 253.687 170.671 253.63C170.341 253.542 169.871 253.395 169.291 253.211C168.125 252.837 166.539 252.279 164.786 251.648L160.302 250.063L158.944 249.586C158.771 249.529 158.606 249.45 158.452 249.351Z" fill="#E0E0E0"/>
<path d="M171.669 253.219C171.61 253.219 172.579 249.858 173.834 245.763C175.089 241.668 176.153 238.351 176.212 238.366C176.27 238.38 175.302 241.727 174.047 245.829C172.792 249.931 171.728 253.233 171.669 253.219Z" fill="#E0E0E0"/>
<path d="M180.453 270.09C180.533 269.926 180.626 269.768 180.732 269.62L181.539 268.395C182.222 267.353 183.154 265.914 184.122 264.285C185.091 262.656 185.928 261.152 186.522 260.065L187.256 258.767C187.334 258.604 187.427 258.449 187.535 258.304C187.488 258.48 187.421 258.65 187.337 258.811C187.19 259.126 186.977 259.581 186.698 260.139C186.141 261.247 185.326 262.766 184.35 264.402C183.374 266.039 182.42 267.463 181.701 268.483C181.341 268.989 181.048 269.4 180.835 269.672C180.725 269.826 180.597 269.966 180.453 270.09Z" fill="#E0E0E0"/>
<path d="M167.765 269.231C167.931 269.208 168.099 269.208 168.264 269.231L169.622 269.275C170.774 269.275 172.359 269.385 174.113 269.488C175.867 269.591 177.444 269.679 178.597 269.767L179.947 269.877C180.116 269.876 180.284 269.901 180.446 269.95C180.28 269.966 180.113 269.966 179.947 269.95L178.582 269.914C177.437 269.87 175.852 269.796 174.098 269.701C172.344 269.605 170.759 269.503 169.614 269.415L168.257 269.305C168.091 269.298 167.926 269.273 167.765 269.231Z" fill="#E0E0E0"/>
<path d="M173.636 285.097C173.848 285.077 174.062 285.077 174.274 285.097L176.021 285.141C177.488 285.185 179.529 285.266 181.774 285.369C184.02 285.471 186.052 285.574 187.52 285.662L189.267 285.772C189.479 285.781 189.69 285.805 189.898 285.846C189.686 285.869 189.472 285.869 189.259 285.846L187.513 285.802C186.045 285.75 184.005 285.677 181.759 285.574C179.514 285.471 177.481 285.361 176.013 285.28L174.274 285.163C174.06 285.157 173.847 285.135 173.636 285.097Z" fill="#E0E0E0"/>
<path d="M189.479 285.721C189.56 285.504 189.661 285.295 189.78 285.097C190.03 284.686 190.36 284.15 190.749 283.497C191.564 282.147 192.686 280.283 193.861 278.184C195.035 276.085 196.062 274.163 196.796 272.761C197.141 272.086 197.434 271.528 197.655 271.102C197.75 270.894 197.866 270.695 197.999 270.508C197.93 270.726 197.841 270.937 197.735 271.139C197.559 271.543 197.288 272.123 196.935 272.834C196.246 274.251 195.248 276.195 194.066 278.294C192.885 280.393 191.747 282.257 190.896 283.585C190.47 284.253 190.118 284.781 189.861 285.148C189.749 285.349 189.622 285.54 189.479 285.721Z" fill="#E0E0E0"/>
<path fill-rule="evenodd" clip-rule="evenodd" d="M383.744 29.2409C383.931 31.2638 383.845 33.3027 383.487 35.3025L387.934 38.7516L384.008 47.1908L378.504 46.002C377.202 47.5659 375.697 48.948 374.028 50.1115L374.762 55.6888L366.007 58.881L362.969 54.155C360.943 54.3361 358.902 54.2473 356.9 53.8909L353.429 58.338L344.982 54.4046L346.171 48.9007C344.609 47.6014 343.23 46.0982 342.069 44.4316L336.484 45.1654L333.292 36.4179L338.018 33.3871C337.83 31.3643 337.917 29.3253 338.275 27.3256L333.842 23.8471L337.768 15.4079L343.272 16.5967C344.572 15.031 346.078 13.6486 347.749 12.4871L347.015 6.90257L355.77 3.71033L358.83 8.43631C360.855 8.25521 362.896 8.34405 364.899 8.70049L368.34 4.24604L376.787 8.17946L375.598 13.676C377.158 14.9797 378.537 16.4851 379.7 18.1525L385.285 17.4186L388.477 26.1661L383.744 29.2189V29.2409ZM370.417 28.2502C369.738 26.397 368.526 24.7865 366.932 23.622C365.339 22.4574 363.436 21.7911 361.464 21.7071C359.492 21.6232 357.54 22.1253 355.853 23.1501C354.166 24.1749 352.821 25.6765 351.987 27.4652C351.153 29.254 350.867 31.2498 351.167 33.2006C351.466 35.1514 352.337 36.9698 353.669 38.4262C355.001 39.8826 356.734 40.9118 358.651 41.3837C360.567 41.8556 362.58 41.7492 364.436 41.0779C365.673 40.6314 366.81 39.9447 367.781 39.0574C368.752 38.1701 369.538 37.0997 370.094 35.9076C370.65 34.7155 370.964 33.4253 371.02 32.1112C371.075 30.797 370.87 29.4849 370.417 28.2502Z" fill="#E0E0E0"/>
<path fill-rule="evenodd" clip-rule="evenodd" d="M431.004 58.5068C431.153 60.1109 431.084 61.7279 430.798 63.3135L434.328 66.0434L431.216 72.7361L426.857 71.7894C425.825 73.027 424.633 74.1226 423.313 75.0477L423.878 79.4508L416.943 81.9826L414.529 78.2326C412.924 78.3779 411.308 78.3088 409.722 78.0271L406.992 81.5496L400.307 78.4381L401.246 74.079C400.009 73.048 398.916 71.8559 397.995 70.5345L393.592 71.0996L391.038 64.2088L394.788 61.7871C394.643 60.1853 394.712 58.5712 394.994 56.9877L391.471 54.2578L394.583 47.5651L398.942 48.5118C399.973 47.2723 401.165 46.1765 402.486 45.2535L401.921 40.8504L408.856 38.3186L411.27 42.0686C412.875 41.9233 414.491 41.9924 416.077 42.274L418.807 38.7442L425.492 41.8631L424.553 46.2221C425.79 47.2533 426.883 48.4454 427.804 49.7666L432.207 49.2016L434.732 56.1291L430.982 58.5435L431.004 58.5068ZM420.451 57.7729C419.922 56.2963 418.966 55.0101 417.704 54.0775C416.443 53.145 414.933 52.6081 413.366 52.5349C411.799 52.4618 410.246 52.8557 408.903 53.6666C407.561 54.4776 406.489 55.6691 405.824 57.09C405.16 58.5109 404.932 60.0972 405.171 61.6476C405.409 63.198 406.102 64.6427 407.163 65.7984C408.224 66.9541 409.604 67.7688 411.128 68.139C412.652 68.5093 414.252 68.4184 415.725 67.878C417.695 67.1599 419.299 65.6892 420.185 63.7889C421.071 61.8886 421.167 59.7142 420.451 57.7436V57.7729Z" fill="#EBEBEB"/>
<path fill-rule="evenodd" clip-rule="evenodd" d="M383.281 86.9581C383.404 88.3224 383.344 89.6969 383.105 91.0457L386.099 93.3646L383.458 99.0593L379.788 98.252C378.91 99.3037 377.896 100.234 376.772 101.019L377.249 104.783L371.379 106.933L369.324 103.749C367.959 103.872 366.584 103.81 365.236 103.565L362.917 106.567L357.23 103.917L358.03 100.248C356.978 99.3721 356.048 98.3604 355.263 97.2393L351.506 97.7163L349.356 91.8455L352.541 89.7908C352.419 88.4265 352.478 87.052 352.717 85.7032L349.715 83.3843L352.364 77.697L356.034 78.4968C356.912 77.4451 357.926 76.5148 359.05 75.7302L358.573 71.9729L364.444 69.8228L366.498 73.0077C367.863 72.8857 369.237 72.9449 370.586 73.1838L372.905 70.1823L378.592 72.8315L377.792 76.5375C378.844 77.4161 379.774 78.4303 380.559 79.5536L384.316 79.0692L386.466 84.94L383.281 86.9581ZM374.299 86.305C373.838 85.0574 373.017 83.9746 371.94 83.1934C370.863 82.4121 369.579 81.9675 368.25 81.9157C366.921 81.8638 365.606 82.2071 364.472 82.9021C363.338 83.5971 362.435 84.6127 361.878 85.8206C361.32 87.0284 361.133 88.3744 361.341 89.6884C361.548 91.0024 362.14 92.2254 363.042 93.2031C363.944 94.1808 365.116 94.8692 366.409 95.1814C367.702 95.4936 369.058 95.4155 370.307 94.9571C371.98 94.3408 373.34 93.0859 374.088 91.4678C374.837 89.8498 374.913 88.0009 374.299 86.327V86.305Z" fill="#F5F5F5"/>
<path d="M136.576 176.612H160.104V173.391H136.576V176.612Z" fill="#E0E0E0"/>
<path d="M136.576 171.167H160.104V167.946H136.576V171.167Z" fill="#E0E0E0"/>
<path d="M149.925 182.454H160.104V179.232H149.925V182.454Z" fill="#E0E0E0"/>
<path d="M494.041 295.789C494.041 295.892 383.436 295.98 247.035 295.98C110.635 295.98 0 295.892 0 295.789C0 295.686 110.584 295.598 247.035 295.598C383.487 295.598 494.041 295.679 494.041 295.789Z" fill="#263238"/>
<path d="M349.627 260.55C348.759 260.759 347.941 261.141 347.224 261.673C346.506 262.205 345.904 262.876 345.452 263.647C344.551 265.197 344.021 266.935 343.903 268.725C343.573 272.167 344.762 275.961 346.244 279.072C349.591 277.208 351.154 273.04 351.814 270.882C352.863 267.463 352.673 260.653 349.613 260.55" fill="#EF8354"/>
<path d="M341.782 283.916C342.178 282.998 342.323 281.992 342.205 280.999C342.086 280.007 341.708 279.064 341.107 278.265C340.494 277.477 339.729 276.818 338.859 276.328C337.988 275.838 337.029 275.526 336.036 275.41C335.585 275.308 335.116 275.305 334.664 275.403C334.211 275.501 333.786 275.696 333.417 275.975C333.121 276.291 332.914 276.679 332.819 277.101C332.723 277.523 332.742 277.963 332.873 278.375C333.147 279.196 333.633 279.93 334.282 280.503C336.403 282.558 338.84 284.172 341.782 283.916Z" fill="#EF8354"/>
<path d="M343.221 294.982C343.26 294.739 343.274 294.494 343.265 294.248C343.265 293.742 343.301 293.096 343.323 292.311C343.445 290.168 343.222 288.02 342.663 285.948C342.062 283.87 340.92 281.988 339.353 280.496C338.872 280.058 338.343 279.677 337.776 279.358C337.621 279.271 337.462 279.192 337.299 279.123C337.188 279.072 337.13 279.05 337.122 279.065C337.879 279.508 338.585 280.033 339.229 280.628C340.732 282.126 341.831 283.982 342.421 286.022C342.976 288.07 343.223 290.19 343.155 292.311C343.155 293.125 343.155 293.778 343.155 294.248C343.154 294.494 343.176 294.74 343.221 294.982Z" fill="#263238"/>
<path d="M349.312 265.745C349.274 265.841 349.242 265.939 349.216 266.039L348.981 266.898C348.783 267.631 348.504 268.718 348.182 270.053C347.521 272.724 346.663 276.423 345.811 280.533C344.96 284.642 344.27 288.385 343.808 291.1C343.573 292.458 343.397 293.551 343.287 294.314C343.235 294.674 343.191 294.967 343.162 295.187C343.151 295.292 343.151 295.398 343.162 295.503C343.203 295.407 343.23 295.306 343.243 295.202C343.287 294.975 343.338 294.688 343.412 294.329L344.013 291.129C344.512 288.429 345.232 284.693 346.083 280.584C346.934 276.474 347.763 272.776 348.38 270.09C348.681 268.776 348.93 267.698 349.114 266.92C349.194 266.56 349.253 266.274 349.304 266.054C349.322 265.952 349.324 265.848 349.312 265.745Z" fill="#263238"/>
<path d="M346.237 286.998C347.009 285.035 348.238 283.286 349.822 281.893C351.406 280.501 353.299 279.506 355.344 278.991C356.386 278.742 357.685 278.705 358.279 279.579C358.874 280.452 358.463 281.67 357.876 282.565C356.619 284.412 354.844 285.847 352.775 286.689C350.706 287.531 348.434 287.743 346.244 287.299" fill="#EF8354"/>
<path d="M354.214 282.081C353.99 282.103 353.769 282.147 353.553 282.213C353.305 282.274 353.06 282.347 352.819 282.433C352.485 282.533 352.156 282.653 351.836 282.793C351.445 282.947 351.062 283.123 350.691 283.321C350.288 283.527 349.869 283.783 349.444 284.055C348.518 284.672 347.663 285.391 346.897 286.198C346.149 287.019 345.497 287.923 344.953 288.891C344.719 289.316 344.511 289.755 344.329 290.205C344.162 290.589 344.019 290.984 343.903 291.386C343.796 291.718 343.708 292.056 343.639 292.399C343.571 292.651 343.524 292.909 343.5 293.169C343.452 293.389 343.43 293.613 343.434 293.837C343.485 293.837 343.588 292.891 344.065 291.445C344.197 291.085 344.329 290.711 344.52 290.285C344.709 289.846 344.922 289.417 345.158 289.001C345.702 288.056 346.347 287.173 347.081 286.367C347.834 285.576 348.668 284.865 349.568 284.246C349.994 283.974 350.39 283.71 350.794 283.512C351.156 283.309 351.528 283.126 351.909 282.962C353.289 282.338 354.228 282.162 354.214 282.081Z" fill="#263238"/>
<path fill-rule="evenodd" clip-rule="evenodd" d="M187.872 117.281C188.407 116.216 189.084 115.229 189.883 114.345L188.76 111.263L193.325 108.328L195.666 110.625C196.792 110.259 197.962 110.047 199.144 109.994L200.531 107.021L205.83 108.166V111.447C206.897 111.98 207.885 112.659 208.765 113.465L211.847 112.342L214.783 116.899L212.486 119.247C212.853 120.373 213.068 121.543 213.124 122.726L216.06 124.113L214.915 129.419H211.634C211.098 130.482 210.421 131.469 209.624 132.354L210.739 135.436L206.182 138.371L203.87 136.126C202.744 136.488 201.574 136.7 200.392 136.757L199.005 139.729L193.707 138.577L193.67 135.304C192.608 134.762 191.621 134.084 190.734 133.286L187.652 134.409L184.717 129.844L187.014 127.503C186.652 126.376 186.439 125.207 186.383 124.025L183.411 122.638L184.563 117.339H187.843L187.872 117.281ZM194.132 121.897C193.888 123.021 193.984 124.193 194.406 125.264C194.828 126.335 195.558 127.256 196.504 127.912C197.45 128.568 198.569 128.928 199.72 128.948C200.871 128.968 202.001 128.646 202.969 128.023C203.937 127.4 204.698 126.504 205.157 125.448C205.616 124.393 205.751 123.225 205.546 122.092C205.34 120.959 204.804 119.913 204.004 119.086C203.204 118.258 202.177 117.686 201.052 117.442C200.305 117.279 199.534 117.265 198.781 117.401C198.029 117.537 197.311 117.82 196.668 118.234C196.025 118.647 195.47 119.184 195.035 119.812C194.6 120.441 194.293 121.149 194.132 121.897Z" fill="#EF8354"/>
<path fill-rule="evenodd" clip-rule="evenodd" d="M179.286 93.1298C179.549 92.6171 179.877 92.141 180.262 91.7135L179.719 90.2458L181.921 88.8148L183.051 89.9302C183.6 89.753 184.17 89.6493 184.746 89.622L185.414 88.1543L187.99 88.712V90.3045C188.5 90.5664 188.974 90.8945 189.399 91.2805L190.867 90.7374L192.29 92.939L191.248 94.0911C191.425 94.6401 191.529 95.2101 191.556 95.7863L193.024 96.4541L192.466 99.0299H190.881C190.619 99.5423 190.288 100.016 189.898 100.439L190.448 101.907L188.247 103.33L187.109 102.215C186.563 102.391 185.995 102.495 185.421 102.523L184.746 103.991L182.178 103.433V101.848C181.663 101.586 181.187 101.255 180.761 100.865L179.294 101.415L177.863 99.2134L178.978 98.0759C178.802 97.5293 178.698 96.9618 178.67 96.3881L177.202 95.7129L177.76 93.1445H179.352L179.286 93.1298ZM182.325 95.368C182.205 95.914 182.251 96.4832 182.455 97.0034C182.659 97.5237 183.013 97.9717 183.472 98.2908C183.931 98.6099 184.474 98.7857 185.033 98.796C185.591 98.8063 186.141 98.6507 186.611 98.3488C187.081 98.0469 187.452 97.6123 187.675 97.0999C187.898 96.5875 187.964 96.0205 187.865 95.4704C187.766 94.9204 187.506 94.4121 187.118 94.0098C186.73 93.6075 186.232 93.3294 185.686 93.2105C184.954 93.0512 184.189 93.189 183.558 93.5936C182.928 93.9982 182.484 94.6364 182.325 95.368Z" fill="#EF8354"/>
<path d="M163.832 113.377C163.832 113.377 163.832 113.296 163.832 113.142C163.872 112.921 163.941 112.706 164.037 112.503C164.39 111.736 164.996 111.114 165.754 110.742C166.248 110.503 166.788 110.375 167.337 110.366C167.886 110.358 168.43 110.468 168.931 110.691C169.433 110.914 169.88 111.243 170.241 111.656C170.603 112.068 170.87 112.555 171.024 113.081C171.179 113.608 171.217 114.162 171.136 114.705C171.054 115.247 170.856 115.766 170.554 116.224C170.252 116.682 169.854 117.069 169.388 117.358C168.922 117.647 168.398 117.831 167.853 117.897C167.227 117.98 166.59 117.902 166.002 117.671C165.414 117.44 164.894 117.063 164.492 116.576C163.951 115.927 163.655 115.109 163.655 114.265C163.655 114.039 163.682 113.815 163.736 113.597C163.736 113.45 163.795 113.377 163.81 113.377C163.824 113.377 163.773 113.699 163.81 114.257C163.857 115.051 164.17 115.805 164.697 116.4C165.12 116.886 165.67 117.245 166.285 117.436C166.901 117.627 167.557 117.642 168.181 117.481C168.804 117.319 169.37 116.987 169.815 116.521C170.261 116.055 170.567 115.475 170.7 114.844C170.831 114.218 170.786 113.567 170.57 112.964C170.354 112.362 169.976 111.831 169.477 111.43C168.978 111.029 168.378 110.774 167.743 110.692C167.108 110.611 166.463 110.707 165.879 110.97C165.155 111.293 164.559 111.848 164.184 112.547C163.927 113.032 163.868 113.377 163.832 113.377Z" fill="#263238"/>
<path d="M159.935 110.441C159.768 110.471 159.598 110.483 159.428 110.478L157.902 110.522L157.961 110.478C157.785 111.337 157.557 112.445 157.278 113.78L157.227 113.67L159.076 114.521H159.142V114.595C159.182 115.319 159.317 116.035 159.546 116.723V116.796L159.495 116.848L158.071 118.315V118.147L159.905 120.972L159.729 120.913L161.637 120.179L161.733 120.143L161.799 120.209C162.336 120.692 162.933 121.104 163.575 121.434L163.663 121.478V121.581C163.663 122.212 163.663 122.902 163.663 123.614L163.523 123.452L166.826 124.186L166.628 124.282L167.486 122.44L167.53 122.337H167.64C168.358 122.303 169.069 122.175 169.754 121.955L169.864 121.919L169.937 121.999C170.399 122.44 170.891 122.931 171.405 123.423H171.17L174.01 121.596L173.929 121.816L173.232 119.901L173.195 119.79L173.269 119.71C173.754 119.177 174.166 118.582 174.494 117.941L174.663 117.838H175.683H176.703L176.52 117.993C176.755 116.877 176.997 115.791 177.254 114.698L177.356 114.91L175.514 114.044L175.412 114V113.883C175.382 113.164 175.254 112.453 175.03 111.77L174.993 111.659L175.074 111.586L176.505 110.118V110.339C175.879 109.36 175.272 108.413 174.685 107.499L174.891 107.572L172.975 108.262L172.873 108.298L172.799 108.232C172.268 107.743 171.673 107.329 171.031 107L170.943 106.955V106.853C170.943 106.119 170.943 105.473 170.943 104.813L171.067 104.967L167.78 104.233L167.941 104.152C167.633 104.798 167.347 105.407 167.075 105.994L167.038 106.075H166.95C166.228 106.107 165.512 106.233 164.822 106.449H164.749L164.698 106.398L163.23 104.93H163.369L160.515 106.735L160.551 106.633C160.823 107.366 161.043 108.027 161.226 108.555V108.592C160.74 109.137 160.305 109.727 159.927 110.353C159.927 110.353 159.927 110.309 159.979 110.228C160.036 110.103 160.099 109.98 160.17 109.862C160.441 109.376 160.766 108.923 161.138 108.511V108.57L160.404 106.662V106.603L160.463 106.559L163.281 104.71L163.355 104.666L163.421 104.725L164.888 106.148H164.756C165.468 105.911 166.209 105.773 166.958 105.737L166.84 105.818L167.692 103.961L167.736 103.859H167.853L171.155 104.592H171.273V104.717C171.273 105.378 171.273 106.053 171.273 106.757L171.185 106.611C171.854 106.951 172.476 107.378 173.034 107.88H172.858L174.773 107.146L174.905 107.095L174.979 107.22C175.573 108.137 176.182 109.084 176.813 110.045L176.887 110.17L176.784 110.272L175.36 111.74L175.404 111.549C175.634 112.263 175.77 113.003 175.808 113.751L175.698 113.589L177.547 114.448L177.687 114.514L177.65 114.661C177.422 115.74 177.18 116.862 176.916 117.956V118.103H176.762H175.749H174.737L174.898 118C174.569 118.714 174.144 119.381 173.636 119.981V119.783L174.37 121.698L174.421 121.845L174.296 121.926L171.434 123.753L171.309 123.834L171.199 123.724L169.732 122.293L169.922 122.337C169.21 122.569 168.469 122.705 167.721 122.741L167.875 122.63C167.582 123.276 167.281 123.907 167.016 124.48L166.95 124.612L166.818 124.575L163.523 123.841H163.384V123.709C163.384 122.975 163.384 122.3 163.384 121.669L163.472 121.816C162.805 121.47 162.186 121.038 161.63 120.532H161.791L159.876 121.221L159.759 121.266L159.693 121.163C159.062 120.165 158.452 119.218 157.88 118.323L157.821 118.227L157.902 118.154L159.333 116.686V116.818C159.111 116.104 158.983 115.364 158.951 114.617L159.018 114.712L157.176 113.839H157.102V113.758C157.41 112.43 157.66 111.329 157.836 110.471V110.441H157.887H159.392H159.781H159.935Z" fill="#263238"/>
<g opacity="0.8">
<path opacity="0.8" fill-rule="evenodd" clip-rule="evenodd" d="M187.872 117.281C188.407 116.216 189.084 115.229 189.883 114.345L188.76 111.263L193.325 108.328L195.666 110.625C196.792 110.259 197.962 110.047 199.144 109.994L200.531 107.021L205.83 108.166V111.447C206.897 111.98 207.885 112.659 208.765 113.465L211.847 112.342L214.783 116.899L212.486 119.247C212.853 120.373 213.068 121.543 213.124 122.726L216.06 124.113L214.915 129.419H211.634C211.098 130.482 210.421 131.469 209.624 132.354L210.739 135.436L206.182 138.371L203.87 136.126C202.744 136.488 201.574 136.7 200.392 136.757L199.005 139.729L193.707 138.577L193.67 135.304C192.608 134.762 191.621 134.084 190.734 133.286L187.652 134.409L184.717 129.844L187.014 127.503C186.652 126.376 186.439 125.207 186.383 124.025L183.411 122.638L184.563 117.339H187.843L187.872 117.281ZM194.132 121.897C193.888 123.021 193.984 124.193 194.406 125.264C194.828 126.335 195.558 127.256 196.504 127.912C197.45 128.568 198.569 128.928 199.72 128.948C200.871 128.968 202.001 128.646 202.969 128.023C203.937 127.4 204.698 126.504 205.157 125.448C205.616 124.393 205.751 123.225 205.546 122.092C205.34 120.959 204.804 119.913 204.004 119.086C203.204 118.258 202.177 117.686 201.052 117.442C200.305 117.279 199.534 117.265 198.781 117.401C198.029 117.537 197.311 117.82 196.668 118.234C196.025 118.647 195.47 119.184 195.035 119.812C194.6 120.441 194.293 121.149 194.132 121.897Z" fill="white"/>
</g>
<path d="M321.462 111.747C320.149 96.9751 314.997 82.1954 304.973 71.2684C294.948 60.3414 279.647 53.7662 265.022 56.2319C250.396 58.6976 237.481 71.2024 236.453 86.0041C235.932 93.8636 238.552 101.664 238.119 109.524C237.385 123.115 227.632 134.614 216.727 142.745C207.327 149.761 197.192 152.285 190.456 161.825C178.369 179.027 180.38 198.848 187.52 210.7C189.971 214.772 193.993 218.603 198.814 221.869C212.662 231.262 229.988 233.684 246.206 229.552C271.37 223.131 294.09 207.258 307.181 186.659C322.394 162.765 323.62 136.023 321.462 111.747Z" fill="#EF8354"/>
<g opacity="0.8">
<path opacity="0.8" d="M321.462 111.747C320.149 96.9751 314.997 82.1954 304.973 71.2684C294.948 60.3414 279.647 53.7662 265.022 56.2319C250.396 58.6976 237.481 71.2024 236.453 86.0041C235.932 93.8636 238.552 101.664 238.119 109.524C237.385 123.115 227.632 134.614 216.727 142.745C207.327 149.761 197.192 152.285 190.456 161.825C178.369 179.027 180.38 198.848 187.52 210.7C189.971 214.772 193.993 218.603 198.814 221.869C212.662 231.262 229.988 233.684 246.206 229.552C271.37 223.131 294.09 207.258 307.181 186.659C322.394 162.765 323.62 136.023 321.462 111.747Z" fill="white"/>
</g>
<path d="M215.575 217.121C216.151 217.121 216.617 216.654 216.617 216.079C216.617 215.503 216.151 215.037 215.575 215.037C215 215.037 214.533 215.503 214.533 216.079C214.533 216.654 215 217.121 215.575 217.121Z" fill="#EF8354"/>
<path d="M232.16 234.535C232.464 234.535 232.711 234.289 232.711 233.985C232.711 233.681 232.464 233.434 232.16 233.434C231.856 233.434 231.61 233.681 231.61 233.985C231.61 234.289 231.856 234.535 232.16 234.535Z" fill="#EF8354"/>
<path d="M268.456 237.192C264.699 238.733 260.384 244.119 260.098 248.353C259.812 252.588 262.028 256.8 265.44 259.317C268.957 261.775 273.262 262.84 277.519 262.304C280.535 261.974 283.596 260.902 285.636 258.635C287.896 256.161 288.608 252.58 288.278 249.249C288.076 246.946 287.369 244.717 286.209 242.718C285.048 240.719 283.462 239 281.563 237.683C277.703 235.159 272.412 234.799 268.456 237.162" fill="#EF8354"/>
<g opacity="0.8">
<path opacity="0.8" d="M268.456 237.192C264.699 238.733 260.384 244.119 260.098 248.353C259.812 252.588 262.028 256.8 265.44 259.317C268.957 261.775 273.262 262.84 277.519 262.304C280.535 261.974 283.596 260.902 285.636 258.635C287.896 256.161 288.608 252.58 288.278 249.249C288.076 246.946 287.369 244.717 286.209 242.718C285.048 240.719 283.462 239 281.563 237.683C277.703 235.159 272.412 234.799 268.456 237.162" fill="white"/>
</g>
<path fill-rule="evenodd" clip-rule="evenodd" d="M297.656 155.881C297.656 156.253 297.546 156.616 297.34 156.925C297.133 157.234 296.84 157.475 296.496 157.617C296.153 157.759 295.775 157.796 295.411 157.724C295.047 157.651 294.712 157.472 294.449 157.21C294.186 156.947 294.007 156.612 293.935 156.248C293.862 155.883 293.9 155.505 294.042 155.162C294.184 154.819 294.425 154.525 294.734 154.319C295.043 154.113 295.406 154.002 295.777 154.002C296.276 154.002 296.754 154.2 297.106 154.553C297.458 154.905 297.656 155.383 297.656 155.881Z" fill="#EF8354"/>
<path d="M267.51 86.327C268.085 86.327 268.552 85.8605 268.552 85.285C268.552 84.7095 268.085 84.2429 267.51 84.2429C266.934 84.2429 266.468 84.7095 266.468 85.285C266.468 85.8605 266.934 86.327 267.51 86.327Z" fill="#EF8354"/>
<path d="M292.761 276.496C292.761 277.722 274.613 278.698 252.216 278.698C229.819 278.698 211.671 277.707 211.671 276.496C211.671 275.285 229.819 274.295 252.216 274.295C274.613 274.295 292.761 275.271 292.761 276.496Z" fill="#FAFAFA"/>
<path d="M190.734 295.782L199.996 276.702H302.155L314.329 295.782C314.329 295.782 190.734 297.066 190.734 295.826" fill="#263238"/>
<path d="M254.183 296.105C254.102 296.105 254.036 292.392 254.036 287.82C254.036 283.248 254.102 279.542 254.183 279.542C254.264 279.542 254.337 283.248 254.337 287.82C254.337 292.392 254.271 296.105 254.183 296.105Z" fill="#455A64"/>
<path d="M306.103 284.194L305.714 284.261L304.584 284.385L300.349 284.818L285.805 286.205L285.922 286.139L282.876 291.049L282.832 291.122H282.752H281.556L262.204 291.482L256.333 291.555H254.176H254.322H254.733L256.326 291.489L262.197 291.32L281.548 290.872H282.744L282.62 290.946C283.669 289.251 284.696 287.607 285.665 286.036L285.709 285.978H285.782L300.327 284.693L304.569 284.349L305.706 284.275L306.103 284.194Z" fill="#455A64"/>
<path d="M296.871 285.046C296.306 282.74 295.94 280.391 295.777 278.023C296.123 279.161 296.368 280.328 296.511 281.509C296.736 282.675 296.857 283.858 296.871 285.046Z" fill="#455A64"/>
<path d="M214.981 296.325C214.912 296.231 214.858 296.127 214.819 296.017L214.438 295.136L213.131 291.959L213.242 292.025L206.233 291.504C202.674 291.225 199.453 290.96 197.119 290.77L194.36 290.52C194.022 290.497 193.687 290.455 193.354 290.395C193.694 290.369 194.035 290.369 194.374 290.395L197.141 290.572C199.482 290.733 202.703 290.968 206.27 291.247L213.264 291.812H213.352V291.878C213.843 293.177 214.254 294.27 214.555 295.077L214.871 295.973C214.925 296.084 214.962 296.203 214.981 296.325Z" fill="#455A64"/>
<path d="M254.183 284.194C254.183 284.194 254.146 284.194 254.066 284.194H253.713H252.341L247.263 284.238L230.039 284.29H230.091L225.416 286.044L222.884 286.998H222.848H222.804L204.157 284.693L198.594 283.96L197.126 283.754L196.737 283.695L196.613 283.659H196.745H197.134L198.645 283.813L204.215 284.444L222.877 286.645H222.804L225.335 285.691L230.017 283.938H230.069L247.292 283.989L252.37 284.033H253.743H254.095L254.183 284.194Z" fill="#455A64"/>
<path d="M330.32 129.756H306.792V132.978H330.32V129.756Z" fill="#EF8354"/>
<path d="M316.971 135.583H306.792V138.804H316.971V135.583Z" fill="#EF8354"/>
<path d="M453.063 136.691C453.106 136.639 453.156 136.592 453.21 136.552L453.672 136.17L454.024 135.899L454.479 135.62L455.023 135.297L455.668 135.011C458.346 133.945 461.321 133.893 464.034 134.864C465.917 135.475 467.641 136.495 469.083 137.851C470.716 139.437 471.935 141.4 472.635 143.567C474.176 148.117 473.78 153.687 471.556 158.714C469.333 163.741 465.788 167.77 462.456 171.109C459.125 174.448 455.852 177.221 453.276 179.709C451.216 181.635 449.28 183.689 447.479 185.859C446.847 186.637 446.378 187.253 446.062 187.679L445.703 188.156C445.622 188.259 445.578 188.317 445.571 188.31C445.596 188.247 445.631 188.187 445.673 188.134C445.754 188.002 445.864 187.833 446.004 187.635C446.29 187.194 446.737 186.556 447.361 185.771C449.124 183.554 451.039 181.462 453.092 179.511C455.646 177.001 458.868 174.205 462.207 170.859C465.546 167.513 468.988 163.521 471.211 158.56C473.435 153.599 473.78 148.132 472.312 143.685C471.634 141.567 470.456 139.644 468.878 138.078C467.471 136.751 465.79 135.749 463.953 135.143C461.303 134.152 458.385 134.152 455.734 135.143C454.786 135.551 453.889 136.071 453.063 136.691Z" fill="#263238"/>
<path d="M392.359 257.358V233.999C392.359 225.721 397.9 220.108 404.835 220.019L476.077 219.131C477.21 219.118 478.335 219.329 479.387 219.754C480.438 220.178 481.395 220.806 482.201 221.603C483.008 222.399 483.649 223.348 484.086 224.394C484.524 225.44 484.75 226.562 484.751 227.695V256.932L392.359 257.358Z" fill="#EF8354"/>
<path d="M475.981 226.397H447.119V239.885H475.981V226.397Z" fill="#FAFAFA"/>
<path d="M438.071 256.793C437.968 256.793 437.88 248.529 437.88 238.336C437.88 228.143 437.968 219.88 438.071 219.88C438.173 219.88 438.261 228.143 438.261 238.336C438.261 248.529 438.173 256.793 438.071 256.793Z" fill="#263238"/>
<path d="M438.364 208.689C438.585 208.531 438.834 208.416 439.098 208.351C439.766 208.102 440.464 207.946 441.175 207.889C442.356 207.769 443.549 207.892 444.68 208.252C445.811 208.612 446.856 209.2 447.75 209.98C448.645 210.76 449.369 211.716 449.879 212.788C450.389 213.859 450.674 215.025 450.715 216.211C450.758 216.922 450.701 217.636 450.546 218.332C450.505 218.588 450.423 218.835 450.304 219.065C450.446 218.126 450.492 217.174 450.443 216.226C450.372 215.086 450.075 213.972 449.57 212.947C449.065 211.923 448.361 211.009 447.501 210.258C446.64 209.508 445.639 208.935 444.556 208.574C443.473 208.212 442.328 208.069 441.189 208.153C440.232 208.236 439.285 208.416 438.364 208.689Z" fill="#263238"/>
<path d="M403.007 220.188L438.071 125.83L463.418 137.865L433.675 226.397L403.007 220.188Z" fill="#EF8354"/>
<path opacity="0.4" d="M419.626 251.84C425.742 247.041 426.809 238.193 422.011 232.078C417.212 225.962 408.364 224.895 402.249 229.693C396.133 234.492 395.065 243.34 399.864 249.455C404.663 255.571 413.51 256.638 419.626 251.84Z" fill="black"/>
<path d="M425.833 241.339C429.16 234.068 425.963 225.476 418.692 222.148C411.421 218.821 402.829 222.018 399.501 229.289C396.174 236.56 399.371 245.152 406.642 248.48C413.913 251.807 422.505 248.61 425.833 241.339Z" fill="#263238"/>
<path d="M417.896 236.93C418.806 234.03 417.192 230.941 414.292 230.031C411.392 229.121 408.303 230.735 407.393 233.635C406.483 236.535 408.096 239.624 410.997 240.534C413.897 241.444 416.986 239.831 417.896 236.93Z" fill="#455A64"/>
<path d="M418.007 223.219C418.055 223.023 418.114 222.829 418.183 222.639C418.33 222.228 418.521 221.671 418.763 220.981C419.291 219.513 420.033 217.458 420.965 214.927C422.858 209.79 425.448 202.759 428.303 194.988L433.528 181.001L433.631 181.221L423.291 177.552L420.4 176.488L419.666 176.201C419.577 176.176 419.493 176.136 419.416 176.084C419.509 176.096 419.6 176.118 419.688 176.15L420.422 176.392L423.357 177.354L433.741 180.876L433.895 180.927L433.836 181.089C432.369 185.169 430.556 189.976 428.699 195.091L421.236 214.993L418.939 221.003L418.293 222.632C418.222 222.839 418.126 223.036 418.007 223.219Z" fill="#263238"/>
<path d="M450.575 177.295C450.575 177.398 444.338 175.027 436.72 172.011C429.103 168.995 422.968 166.471 423.005 166.368C423.041 166.265 429.25 168.635 436.86 171.659C444.47 174.682 450.619 177.221 450.575 177.295Z" fill="#263238"/>
<path d="M419.901 249.249C419.901 249.249 420.253 248.918 420.906 248.339C421.822 247.52 422.692 246.65 423.511 245.733C426.175 242.68 428.373 239.25 430.035 235.555C431.686 231.847 433.086 228.032 434.225 224.136L435.304 220.607C435.429 220.225 435.524 219.909 435.612 219.645C435.7 219.381 435.73 219.315 435.744 219.322C435.743 219.44 435.723 219.556 435.686 219.667C435.62 219.931 435.539 220.254 435.451 220.643C435.231 221.487 434.908 222.713 434.482 224.217C433.414 228.148 432.042 231.99 430.38 235.709C428.71 239.443 426.458 242.888 423.709 245.917C422.87 246.826 421.965 247.673 421.001 248.449C420.745 248.665 420.478 248.869 420.201 249.058C420.011 249.197 419.908 249.263 419.901 249.249Z" fill="#263238"/>
<path d="M401.474 241.374C401.474 241.374 401.386 241.374 401.224 241.323C400.988 241.249 400.763 241.143 400.556 241.007C399.793 240.495 399.206 239.759 398.876 238.901C398.423 237.627 398.294 236.26 398.502 234.924C398.695 233.311 398.969 231.709 399.323 230.124C399.956 227.244 400.835 224.423 401.951 221.693C402.376 220.643 402.765 219.814 403.037 219.249C403.166 218.947 403.326 218.66 403.514 218.39C403.432 218.707 403.319 219.014 403.176 219.308C402.941 219.895 402.589 220.731 402.2 221.788C401.168 224.531 400.331 227.344 399.698 230.205C399.03 233.537 398.296 236.7 399.125 238.806C399.421 239.628 399.945 240.349 400.637 240.883C401.129 241.25 401.488 241.338 401.474 241.374Z" fill="#263238"/>
<path d="M396.043 289.045C403.087 289.045 408.798 283.335 408.798 276.291C408.798 269.247 403.087 263.537 396.043 263.537C388.999 263.537 383.289 269.247 383.289 276.291C383.289 283.335 388.999 289.045 396.043 289.045Z" fill="#455A64"/>
<path d="M396.043 280.665C398.459 280.665 400.417 278.707 400.417 276.291C400.417 273.875 398.459 271.917 396.043 271.917C393.628 271.917 391.669 273.875 391.669 276.291C391.669 278.707 393.628 280.665 396.043 280.665Z" fill="#263238"/>
<path d="M437.953 289.383C444.997 289.383 450.708 283.672 450.708 276.628C450.708 269.584 444.997 263.874 437.953 263.874C430.909 263.874 425.199 269.584 425.199 276.628C425.199 283.672 430.909 289.383 437.953 289.383Z" fill="#455A64"/>
<path d="M437.953 281.002C440.369 281.002 442.327 279.044 442.327 276.628C442.327 274.213 440.369 272.255 437.953 272.255C435.538 272.255 433.579 274.213 433.579 276.628C433.579 279.044 435.538 281.002 437.953 281.002Z" fill="#263238"/>
<path d="M480.186 289.383C487.23 289.383 492.94 283.672 492.94 276.628C492.94 269.584 487.23 263.874 480.186 263.874C473.142 263.874 467.432 269.584 467.432 276.628C467.432 283.672 473.142 289.383 480.186 289.383Z" fill="#455A64"/>
<path d="M480.186 281.002C482.602 281.002 484.56 279.044 484.56 276.628C484.56 274.213 482.602 272.255 480.186 272.255C477.771 272.255 475.812 274.213 475.812 276.628C475.812 279.044 477.771 281.002 480.186 281.002Z" fill="#263238"/>
<path d="M480.641 295.65H395.757C390.623 295.65 385.699 293.61 382.068 289.98C378.438 286.349 376.398 281.425 376.398 276.291C376.398 271.157 378.438 266.233 382.068 262.602C385.699 258.972 390.623 256.932 395.757 256.932H480.641C485.775 256.932 490.7 258.972 494.33 262.602C497.961 266.233 500 271.157 500 276.291C500 281.425 497.961 286.349 494.33 289.98C490.7 293.61 485.775 295.65 480.641 295.65ZM395.757 263.28C392.306 263.28 388.997 264.651 386.557 267.091C384.117 269.531 382.746 272.84 382.746 276.291C382.746 279.742 384.117 283.051 386.557 285.491C388.997 287.931 392.306 289.302 395.757 289.302H480.641C484.092 289.302 487.401 287.931 489.841 285.491C492.282 283.051 493.652 279.742 493.652 276.291C493.652 272.84 492.282 269.531 489.841 267.091C487.401 264.651 484.092 263.28 480.641 263.28H395.757Z" fill="#263238"/>
<path d="M437.953 263.265C437.797 261.199 437.797 259.123 437.953 257.057C438.1 259.124 438.1 261.198 437.953 263.265Z" fill="#455A64"/>
<path d="M453.863 263.265C453.706 261.199 453.706 259.123 453.863 257.057C454.02 259.123 454.02 261.199 453.863 263.265Z" fill="#455A64"/>
<path d="M469.773 263.265C469.616 261.199 469.616 259.123 469.773 257.057C469.929 259.123 469.929 261.199 469.773 263.265Z" fill="#455A64"/>
<path d="M484.56 263.874C484.745 262.853 485.008 261.847 485.345 260.865C485.61 259.863 485.948 258.882 486.358 257.93C486.167 258.948 485.902 259.952 485.565 260.931C485.299 261.935 484.963 262.918 484.56 263.874Z" fill="#455A64"/>
<path d="M492.94 271.844C494.709 270.765 496.556 269.821 498.466 269.018C497.601 269.587 496.696 270.092 495.758 270.53C494.854 271.04 493.912 271.479 492.94 271.844Z" fill="#455A64"/>
<path d="M437.168 289.581C437.325 291.647 437.325 293.723 437.168 295.789C437.012 293.723 437.012 291.647 437.168 289.581Z" fill="#455A64"/>
<path d="M453.078 289.383C453.234 291.449 453.234 293.525 453.078 295.591C452.931 293.524 452.931 291.45 453.078 289.383Z" fill="#455A64"/>
<path d="M468.988 289.383C469.144 291.449 469.144 293.525 468.988 295.591C468.841 293.524 468.841 291.45 468.988 289.383Z" fill="#455A64"/>
<path d="M483.775 288.972C484.183 289.924 484.521 290.906 484.787 291.907C485.121 292.891 485.385 293.896 485.58 294.916C485.169 293.964 484.831 292.983 484.567 291.981C484.23 290.998 483.965 289.993 483.775 288.972Z" fill="#455A64"/>
<path d="M492.596 281.648C493.564 282.02 494.506 282.459 495.414 282.962C496.351 283.399 497.256 283.905 498.121 284.473C496.21 283.675 494.362 282.731 492.596 281.648Z" fill="#455A64"/>
<path d="M422.755 289.581C422.912 291.647 422.912 293.723 422.755 295.789C422.608 293.722 422.608 291.648 422.755 289.581Z" fill="#455A64"/>
<path d="M406.845 289.581C407.002 291.647 407.002 293.723 406.845 295.789C406.699 293.722 406.699 291.648 406.845 289.581Z" fill="#455A64"/>
<path d="M392.066 288.972C391.875 289.99 391.61 290.993 391.273 291.973C391.006 292.975 390.668 293.956 390.26 294.909C390.713 292.885 391.317 290.898 392.066 288.964V288.972Z" fill="#455A64"/>
<path d="M383.678 281.002C382.813 281.571 381.908 282.076 380.97 282.514C380.062 283.016 379.12 283.455 378.152 283.827C379.018 283.254 379.925 282.746 380.867 282.308C381.771 281.805 382.71 281.369 383.678 281.002Z" fill="#455A64"/>
<path d="M423.54 263.456C423.394 261.389 423.394 259.314 423.54 257.248C423.697 259.314 423.697 261.389 423.54 263.456Z" fill="#455A64"/>
<path d="M407.631 263.456C407.474 261.389 407.474 259.314 407.631 257.248C407.787 259.314 407.787 261.389 407.631 263.456Z" fill="#455A64"/>
<path d="M392.851 263.874C392.44 262.923 392.102 261.941 391.838 260.939C391.501 259.959 391.236 258.956 391.046 257.937C391.455 258.889 391.794 259.871 392.058 260.873C392.395 261.853 392.66 262.856 392.851 263.874Z" fill="#455A64"/>
<path d="M384.03 271.191C383.059 270.827 382.117 270.39 381.212 269.884C380.271 269.445 379.364 268.937 378.497 268.365C379.469 268.733 380.411 269.174 381.315 269.686C382.256 270.12 383.164 270.622 384.03 271.191Z" fill="#455A64"/>
<path d="M359.857 165.59L407.455 146.437L410.17 156.681L364.701 176.466L359.857 165.59Z" fill="#E0E0E0"/>
<path d="M445.438 149.886L411.872 163.198L404.005 142.114L442.019 126.204L445.438 149.886Z" fill="#EF8354"/>
<path d="M457.437 134.592L478.418 125.852L474.961 117.178L454.597 125.404L457.437 134.592Z" fill="#E0E0E0"/>
<path opacity="0.4" d="M446.994 156.292C454.298 156.292 460.218 150.372 460.218 143.068C460.218 135.765 454.298 129.844 446.994 129.844C439.691 129.844 433.77 135.765 433.77 143.068C433.77 150.372 439.691 156.292 446.994 156.292Z" fill="black"/>
<path d="M456.989 126.711C458.818 128.685 460.021 131.157 460.444 133.814C460.868 136.471 460.495 139.195 459.371 141.64C458.247 144.085 456.424 146.142 454.131 147.55C451.838 148.959 449.179 149.656 446.49 149.553C443.801 149.451 441.203 148.553 439.024 146.974C436.845 145.394 435.184 143.204 434.249 140.681C433.315 138.157 433.15 135.413 433.776 132.796C434.401 130.179 435.788 127.806 437.762 125.977C440.409 123.525 443.922 122.224 447.528 122.362C451.133 122.499 454.537 124.064 456.989 126.711Z" fill="#263238"/>
<path d="M450.796 132.457C451.472 133.208 451.913 134.142 452.061 135.142C452.209 136.143 452.059 137.164 451.629 138.08C451.199 138.995 450.508 139.763 449.644 140.287C448.779 140.812 447.779 141.069 446.769 141.028C445.758 140.986 444.783 140.648 443.964 140.054C443.146 139.461 442.52 138.639 442.167 137.692C441.813 136.744 441.747 135.714 441.976 134.729C442.206 133.744 442.721 132.849 443.457 132.156C443.955 131.687 444.542 131.322 445.183 131.083C445.824 130.843 446.506 130.735 447.19 130.763C447.873 130.791 448.544 130.955 449.164 131.246C449.783 131.537 450.338 131.948 450.796 132.457Z" fill="#455A64"/>
<path d="M408.166 139.303C408.368 139.457 408.554 139.629 408.724 139.817C409.106 140.221 409.605 140.727 410.192 141.344L415.233 146.708L415.035 146.664L419.666 144.822C423.585 143.274 427.129 141.887 429.705 140.911L432.765 139.766C433.135 139.616 433.515 139.493 433.902 139.399C433.558 139.599 433.197 139.768 432.824 139.905L429.808 141.167C427.254 142.21 423.724 143.633 419.813 145.174L415.167 147.002L415.05 147.046L414.969 146.957L410.03 141.498C409.458 140.852 408.996 140.316 408.629 139.898C408.451 139.72 408.295 139.52 408.166 139.303Z" fill="#263238"/>
<path d="M324.831 174.499L358.441 160.233L368.01 180.054L333.174 195.076L324.831 174.499Z" fill="#EF8354"/>
<path opacity="0.4" d="M343.297 186.134C344.695 180.301 341.1 174.439 335.267 173.041C329.434 171.642 323.571 175.237 322.173 181.071C320.775 186.904 324.37 192.766 330.203 194.164C336.036 195.562 341.898 191.967 343.297 186.134Z" fill="black"/>
<path d="M339.546 188.805C341.496 182.688 338.118 176.149 332.002 174.2C325.885 172.25 319.346 175.628 317.396 181.745C315.447 187.861 318.824 194.4 324.941 196.35C331.058 198.3 337.597 194.922 339.546 188.805Z" fill="#263238"/>
<path d="M326.739 181.199C327.541 180.863 328.424 180.772 329.278 180.937C330.132 181.103 330.917 181.518 331.535 182.129C332.154 182.74 332.577 183.521 332.753 184.373C332.928 185.225 332.847 186.109 332.52 186.915C332.193 187.721 331.635 188.412 330.916 188.901C330.197 189.39 329.349 189.655 328.48 189.663C327.61 189.671 326.758 189.421 326.03 188.945C325.302 188.469 324.732 187.789 324.39 186.989C324.162 186.455 324.042 185.881 324.037 185.3C324.032 184.719 324.141 184.143 324.359 183.605C324.578 183.067 324.9 182.577 325.309 182.164C325.717 181.751 326.203 181.423 326.739 181.199Z" fill="#455A64"/>
<path d="M346.208 189.455C346.117 189.186 346.058 188.908 346.031 188.625L345.657 186.292C345.356 184.237 344.923 181.448 344.49 178.219V178.08L344.622 178.029L348.754 176.348C352.798 174.704 356.467 173.244 359.131 172.202L362.294 170.984C362.673 170.818 363.066 170.685 363.468 170.587C363.108 170.796 362.733 170.975 362.345 171.123L359.233 172.451C356.591 173.552 352.944 175.057 348.901 176.7L344.762 178.366L344.872 178.175C345.283 181.39 345.642 184.178 345.907 186.248C346.017 187.202 346.105 187.987 346.171 188.596C346.212 188.88 346.224 189.168 346.208 189.455Z" fill="#263238"/>
<path d="M307.15 192.225L306.915 190.85L298.604 192.272L298.839 193.647L307.15 192.225Z" fill="#263238"/>
<path d="M322.739 183.745L317.852 184.582L317.426 182.094L315.547 182.417L316.098 185.675L312.671 186.262L312.95 187.892L314.05 194.32L317.477 193.733L318.006 196.815L319.679 196.529L319.341 194.562L324.442 193.689L322.739 183.745Z" fill="#263238"/>
<path d="M312.945 187.905L305.147 189.239L306.027 194.382L313.825 193.048L312.945 187.905Z" fill="#455A64"/>
<path d="M255.284 140.456C255.284 140.456 221.527 139.362 221.527 157.334C221.527 177.684 228.234 215.814 255.284 215.418C282.333 215.022 287.294 161.554 287.573 159.176C287.595 159.154 289.004 141.997 255.284 140.456Z" fill="#EF8354"/>
<path d="M286.788 154.516C286.747 154.559 286.7 154.596 286.648 154.626L286.215 154.912C285.841 155.169 285.269 155.514 284.528 155.94C282.399 157.116 280.169 158.098 277.864 158.875C274.446 160.037 270.921 160.855 267.341 161.319C262.96 161.874 258.546 162.12 254.132 162.053C249.72 162.07 245.31 161.847 240.922 161.385C237.322 160.996 233.8 160.07 230.472 158.64C228.239 157.658 226.17 156.339 224.337 154.729C223.706 154.142 223.237 153.658 222.943 153.32L222.613 152.924L222.503 152.784C222.503 152.784 222.554 152.821 222.642 152.902L223.002 153.269C223.31 153.592 223.794 154.054 224.469 154.612C226.316 156.173 228.387 157.45 230.612 158.398C233.912 159.79 237.398 160.692 240.959 161.077C245.336 161.514 249.733 161.727 254.132 161.715C258.531 161.767 262.93 161.522 267.297 160.981C270.86 160.535 274.372 159.746 277.783 158.626C280.082 157.866 282.313 156.916 284.454 155.786C285.188 155.382 285.79 155.052 286.179 154.824L286.626 154.575C286.678 154.55 286.732 154.53 286.788 154.516Z" fill="#263238"/>
<path d="M266.387 161.297C266.421 161.461 266.439 161.628 266.438 161.796C266.438 162.126 266.438 162.618 266.438 163.264C266.439 165.044 266.252 166.82 265.88 168.562C265.616 169.767 265.23 170.942 264.728 172.07C264.17 173.374 263.428 174.592 262.527 175.688C261.511 176.894 260.292 177.912 258.924 178.696C258.192 179.098 257.423 179.428 256.627 179.68C255.801 179.925 254.948 180.07 254.088 180.113C252.387 180.152 250.708 179.737 249.222 178.909C247.841 178.14 246.625 177.108 245.641 175.871C244.001 173.764 242.925 171.274 242.515 168.635C242.229 166.877 242.116 165.095 242.177 163.315C242.177 162.691 242.236 162.2 242.265 161.847C242.269 161.677 242.291 161.507 242.331 161.341C242.344 161.509 242.344 161.679 242.331 161.847C242.331 162.214 242.331 162.699 242.331 163.315C242.32 165.079 242.472 166.841 242.786 168.577C243.218 171.155 244.293 173.584 245.912 175.636C246.874 176.831 248.058 177.828 249.398 178.572C250.837 179.362 252.461 179.755 254.102 179.709C254.93 179.67 255.751 179.532 256.546 179.298C257.31 179.054 258.047 178.735 258.747 178.344C260.084 177.582 261.275 176.588 262.263 175.409C263.163 174.35 263.904 173.166 264.464 171.894C264.973 170.789 265.369 169.636 265.646 168.452C266.039 166.731 266.265 164.976 266.321 163.212C266.321 162.618 266.321 162.141 266.357 161.745C266.353 161.595 266.363 161.445 266.387 161.297Z" fill="#263238"/>
<path d="M274.415 202.745C274.371 202.745 274.151 202.011 273.579 200.771C272.755 199.006 271.707 197.356 270.46 195.861C268.597 193.658 266.314 191.847 263.745 190.533C260.577 188.964 257.067 188.212 253.535 188.346C250.002 188.481 246.559 189.498 243.52 191.304C241.056 192.805 238.918 194.783 237.231 197.123C236.097 198.708 235.177 200.435 234.494 202.26C234.009 203.552 233.848 204.3 233.804 204.293C233.826 204.107 233.862 203.923 233.914 203.743C234.033 203.224 234.18 202.712 234.354 202.209C234.988 200.348 235.882 198.586 237.011 196.977C238.693 194.577 240.848 192.547 243.344 191.01C246.424 189.155 249.924 188.111 253.518 187.975C257.111 187.839 260.68 188.616 263.892 190.233C266.493 191.576 268.793 193.436 270.65 195.7C271.899 197.221 272.926 198.911 273.703 200.719C273.96 201.365 274.151 201.864 274.254 202.187C274.326 202.367 274.381 202.554 274.415 202.745Z" fill="#263238"/>
<path d="M269.168 184.898L270.724 177.955H284.359C283.874 180.025 283.199 182.439 282.421 185.008L269.168 184.898Z" fill="#FAFAFA"/>
<path d="M238.669 184.898L237.121 177.955H223.479C223.963 180.025 224.374 182.439 225.145 185.008L238.669 184.898Z" fill="#FAFAFA"/>
<path opacity="0.4" d="M285.819 152.814C282.553 147.486 273.916 141.322 255.284 140.456C255.284 140.456 234.406 139.78 225.489 148.227C224.645 149.093 223.883 150.036 223.215 151.045C222.671 152.05 230.179 161.069 254.308 160.299C279.2 159.499 285.819 152.814 285.819 152.814Z" fill="black"/>
<path d="M220.947 120.979C219.751 118.301 219.171 115.233 219.986 112.415C220.8 109.597 223.222 107.139 226.15 106.882" fill="#263238"/>
<path d="M225.174 107.051C225.174 107.102 224.682 107.499 223.985 108.298C223.069 109.328 222.303 110.482 221.71 111.726C221.154 112.993 220.679 114.295 220.286 115.622C220.164 116.188 220.002 116.745 219.802 117.288C219.784 116.703 219.858 116.118 220.022 115.556C220.342 114.187 220.789 112.85 221.358 111.564C221.966 110.285 222.787 109.118 223.787 108.115C224.173 107.671 224.645 107.309 225.174 107.051Z" fill="#EF8354"/>
<path d="M288.424 120.979C289.62 118.301 290.2 115.233 289.386 112.415C288.571 109.597 286.149 107.139 283.229 106.882" fill="#263238"/>
<path d="M284.197 107.051C284.728 107.306 285.2 107.669 285.584 108.115C286.586 109.117 287.408 110.283 288.013 111.564C288.582 112.85 289.029 114.187 289.349 115.556C289.513 116.118 289.587 116.703 289.569 117.288C289.374 116.743 289.212 116.187 289.085 115.622C288.695 114.295 288.222 112.993 287.668 111.726C287.07 110.483 286.302 109.329 285.386 108.298C284.689 107.506 284.161 107.102 284.197 107.051Z" fill="#EF8354"/>
<path d="M223.655 134.277C222.031 132.618 220.838 130.587 220.18 128.361C219.523 126.135 219.421 123.782 219.883 121.508C221.835 111.674 228.99 93.9737 255.284 94.3553C282.869 94.7443 288.05 113.839 288.938 123.034C289.123 124.916 288.935 126.816 288.383 128.624C287.832 130.433 286.928 132.114 285.724 133.572C281.621 138.526 272.911 144.925 255.284 144.917C237.825 144.932 228.44 139.105 223.655 134.277Z" fill="#EF8354"/>
<path d="M242.992 95.5074C243.058 95.6097 243.11 95.7209 243.146 95.8377L243.527 96.8064C243.858 97.6429 244.32 98.8611 245.039 100.292C245.854 101.976 246.97 103.496 248.334 104.776C249.984 106.365 252.186 107.251 254.476 107.249C256.76 107.112 258.933 106.222 260.655 104.717C262.058 103.479 263.235 102.007 264.134 100.366C264.752 99.2594 265.303 98.1174 265.785 96.9458C265.949 96.5073 266.137 96.0785 266.35 95.6616C266.341 95.7832 266.311 95.9023 266.262 96.0138C266.189 96.2413 266.079 96.5789 265.924 96.9972C265.491 98.1998 264.971 99.3697 264.369 100.498C263.488 102.191 262.306 103.71 260.883 104.981C259.11 106.562 256.855 107.495 254.484 107.631C253.255 107.661 252.035 107.41 250.917 106.897C249.884 106.427 248.933 105.795 248.099 105.025C246.714 103.706 245.593 102.135 244.797 100.395C244.253 99.2417 243.783 98.0554 243.388 96.8431C243.241 96.4125 243.138 96.0823 243.08 95.8524C243.04 95.7404 243.01 95.6249 242.992 95.5074Z" fill="#263238"/>
<path d="M272.705 133.191C259.907 136.317 247.417 136.434 235.279 133.323C233.057 132.745 231.09 131.444 229.688 129.625C228.287 127.806 227.53 125.573 227.537 123.276V123.1C227.537 121.736 227.806 120.384 228.328 119.124C228.85 117.863 229.616 116.717 230.58 115.752C231.545 114.787 232.691 114.022 233.952 113.5C235.212 112.978 236.564 112.709 237.928 112.709H270.217C271.582 112.709 272.933 112.978 274.194 113.5C275.455 114.022 276.6 114.787 277.565 115.752C278.53 116.717 279.296 117.863 279.818 119.124C280.34 120.384 280.609 121.736 280.609 123.1C280.61 125.424 279.833 127.681 278.4 129.51C276.967 131.34 274.962 132.636 272.705 133.191Z" fill="#263238"/>
<path d="M244.511 125.074C244.437 125.534 244.229 125.961 243.912 126.303C243.595 126.644 243.185 126.884 242.732 126.992C242.279 127.1 241.804 127.071 241.367 126.91C240.931 126.748 240.552 126.461 240.278 126.084C240.005 125.707 239.849 125.258 239.831 124.792C239.813 124.327 239.933 123.867 240.176 123.47C240.42 123.073 240.775 122.757 241.198 122.562C241.62 122.367 242.092 122.301 242.551 122.374C242.858 122.422 243.151 122.53 243.416 122.692C243.68 122.854 243.91 123.066 244.092 123.317C244.274 123.568 244.404 123.852 244.476 124.154C244.548 124.455 244.56 124.768 244.511 125.074Z" fill="white"/>
<path d="M271.502 123.709C271.428 124.169 271.219 124.597 270.902 124.938C270.585 125.279 270.173 125.519 269.72 125.627C269.267 125.734 268.792 125.705 268.355 125.543C267.919 125.38 267.54 125.092 267.267 124.715C266.994 124.337 266.839 123.887 266.822 123.421C266.805 122.956 266.926 122.496 267.17 122.099C267.415 121.702 267.771 121.387 268.195 121.193C268.618 120.999 269.09 120.935 269.55 121.009C269.855 121.058 270.148 121.167 270.412 121.329C270.675 121.491 270.904 121.704 271.085 121.955C271.266 122.205 271.397 122.489 271.468 122.79C271.54 123.092 271.551 123.404 271.502 123.709Z" fill="white"/>
<path d="M261.14 124.01C261.245 124.71 261.122 125.426 260.788 126.05C260.474 126.753 259.999 127.371 259.401 127.855C258.673 128.44 257.785 128.788 256.854 128.854C255.932 128.927 255.009 128.714 254.212 128.244C253.566 127.851 253.025 127.307 252.634 126.659C252.228 126.084 252.024 125.389 252.055 124.685C252.279 125.304 252.564 125.899 252.906 126.461C253.303 127.031 253.822 127.504 254.425 127.848C255.156 128.254 255.991 128.435 256.825 128.369C257.665 128.312 258.471 128.011 259.144 127.503C259.702 127.072 260.162 126.526 260.494 125.903C260.765 125.293 260.981 124.659 261.14 124.01Z" fill="white"/>
<path d="M36.4796 138.181C36.4178 138.217 36.3511 138.244 36.2815 138.261L35.6944 138.46C35.1807 138.636 34.4248 138.915 33.4928 139.34C30.8333 140.532 28.4626 142.284 26.5433 144.477C25.2326 145.984 24.2214 147.728 23.5639 149.614C22.8525 151.799 22.7011 154.128 23.1236 156.387C23.5672 158.891 24.7418 161.207 26.4993 163.043C27.4424 163.976 28.5527 164.723 29.7722 165.245C31.0338 165.79 32.3787 166.118 33.7497 166.214C36.4813 166.3 39.2042 165.862 41.7706 164.922C44.2731 164.078 46.592 162.948 48.8376 161.987C50.9507 161.011 53.1462 160.225 55.3982 159.638C57.3718 159.116 59.4283 158.984 61.4524 159.249C64.4229 159.561 67.1513 161.03 69.0478 163.337C69.3212 163.707 69.5665 164.097 69.7816 164.504C69.9357 164.878 70.0898 165.179 70.1706 165.443C70.2513 165.707 70.2953 165.883 70.332 166.038C70.3572 166.106 70.372 166.178 70.376 166.25L70.2953 166.052L70.0972 165.465C70.0018 165.216 69.8403 164.915 69.6789 164.555C69.4662 164.159 69.2207 163.781 68.945 163.425C67.0363 161.203 64.3451 159.803 61.4304 159.514C59.4396 159.276 57.4216 159.423 55.4863 159.947C53.257 160.544 51.0839 161.335 48.9917 162.31C46.7902 163.286 44.4418 164.423 41.9027 165.289C39.2921 166.247 36.5216 166.693 33.7423 166.603C32.3257 166.516 30.9338 166.191 29.6255 165.641C28.3582 165.091 27.2094 164.301 26.2424 163.315C24.4348 161.427 23.2314 159.043 22.786 156.468C22.3604 154.15 22.5296 151.761 23.2777 149.526C23.9527 147.6 24.9943 145.823 26.3452 144.294C28.3004 142.076 30.7243 140.322 33.4415 139.157C34.4208 138.735 35.4381 138.409 36.4796 138.181Z" fill="#263238"/>
<path d="M130.478 252.624V225.076C130.478 221.363 129.014 217.801 126.404 215.162C123.793 212.522 120.247 211.019 116.535 210.978L36.8024 209.98C35.533 209.965 34.2732 210.202 33.0959 210.677C31.9186 211.152 30.8474 211.856 29.9443 212.748C29.0412 213.64 28.3241 214.703 27.8348 215.874C27.3455 217.045 27.0935 218.302 27.0936 219.572V252.294L130.478 252.624Z" fill="#EF8354"/>
<path d="M36.8685 233.214H69.1725V218.111H36.8685V233.214Z" fill="#FAFAFA"/>
<path d="M79.307 252.14C79.1969 252.14 79.1162 242.886 79.1162 231.482C79.1162 220.078 79.1969 210.817 79.307 210.817C79.4171 210.817 79.4978 220.064 79.4978 231.482C79.4978 242.901 79.4098 252.14 79.307 252.14Z" fill="#263238"/>
<path d="M78.9693 198.29C77.9519 197.976 76.9039 197.772 75.8432 197.681C74.5654 197.587 73.2817 197.748 72.0663 198.153C70.851 198.559 69.728 199.201 68.7624 200.043C67.7968 200.885 67.0077 201.91 66.4407 203.059C65.8738 204.208 65.5401 205.458 65.4592 206.737C65.4024 207.799 65.4639 208.865 65.6427 209.914C65.5108 209.654 65.4216 209.374 65.3785 209.085C65.2061 208.308 65.1443 207.51 65.195 206.715C65.256 205.393 65.5841 204.098 66.1594 202.906C66.7347 201.715 67.5453 200.652 68.5424 199.783C69.5395 198.913 70.7024 198.255 71.9609 197.847C73.2195 197.439 74.5476 197.29 75.8652 197.41C76.658 197.474 77.4382 197.647 78.1841 197.923C78.4623 198.007 78.7268 198.13 78.9693 198.29Z" fill="#263238"/>
<path d="M118.553 211.162L79.307 105.547L50.9291 119.013L84.2238 218.111L118.553 211.162Z" fill="#EF8354"/>
<path opacity="0.4" d="M125.424 234.778C125.721 226.082 118.911 218.792 110.214 218.496C101.517 218.199 94.2274 225.009 93.9313 233.706C93.6352 242.403 100.445 249.693 109.142 249.989C117.838 250.285 125.128 243.475 125.424 234.778Z" fill="black"/>
<path d="M122.809 234.033C126.092 225.708 122.004 216.298 113.679 213.015C105.354 209.732 95.944 213.82 92.6613 222.145C89.3787 230.47 93.4663 239.88 101.791 243.163C110.116 246.445 119.526 242.358 122.809 234.033Z" fill="#263238"/>
<path d="M102.1 230.587C102.591 231.703 103.403 232.648 104.431 233.303C105.46 233.958 106.659 234.293 107.878 234.266C109.097 234.24 110.281 233.852 111.28 233.152C112.278 232.452 113.047 231.472 113.488 230.336C113.93 229.199 114.024 227.957 113.76 226.767C113.495 225.576 112.884 224.491 112.003 223.649C111.121 222.806 110.01 222.243 108.809 222.032C107.608 221.821 106.372 221.971 105.256 222.463C103.76 223.122 102.588 224.348 101.996 225.872C101.405 227.395 101.442 229.091 102.1 230.587Z" fill="#455A64"/>
<path d="M101.77 214.56C101.738 214.511 101.711 214.459 101.689 214.405L101.499 213.936L100.765 212.108C100.148 210.487 99.297 208.19 98.1962 205.372C96.0534 199.64 93.1106 191.781 89.8523 183.099L84.1063 167.424L84.0476 167.263L84.2091 167.212L95.7892 163.278L99.0548 162.192L99.9207 161.921L100.251 161.811C100.251 161.811 100.156 161.862 99.9648 161.943L99.1209 162.258L95.8846 163.432L84.3118 167.505L84.4072 167.292C86.1171 171.857 88.1205 177.221 90.278 182.953C93.4922 191.649 96.3983 199.523 98.5118 205.262C99.5465 208.102 100.376 210.399 100.97 212.042C101.242 212.82 101.462 213.437 101.623 213.892L101.777 214.376C101.786 214.437 101.783 214.499 101.77 214.56Z" fill="#263238"/>
<path d="M65.3052 163.154C65.3052 163.051 72.1446 160.218 80.6646 156.857C89.1846 153.496 96.1268 150.825 96.1708 150.92C96.2149 151.016 89.3314 153.856 80.804 157.217C72.2767 160.578 65.3492 163.278 65.3052 163.154Z" fill="#263238"/>
<path d="M99.6419 243.693C99.5224 243.638 99.4112 243.567 99.3117 243.481C99.1062 243.326 98.7907 243.106 98.4164 242.791C97.3432 241.916 96.3329 240.967 95.393 239.951C92.3201 236.561 89.8014 232.707 87.9297 228.532C86.0829 224.367 84.5593 220.066 83.3725 215.668C82.8955 213.987 82.5286 212.615 82.2864 211.676L82.0149 210.582C81.9784 210.455 81.9562 210.325 81.9489 210.193C82.0115 210.309 82.0584 210.432 82.0883 210.56C82.1837 210.846 82.2938 211.199 82.4332 211.632L83.6294 215.587C84.9026 219.949 86.4693 224.22 88.3187 228.371C90.1844 232.513 92.6578 236.355 95.6571 239.767C96.5778 240.802 97.5579 241.782 98.5925 242.703C98.9583 243.016 99.3085 243.346 99.6419 243.693Z" fill="#263238"/>
<path d="M120.27 234.88C120.594 234.718 120.908 234.537 121.21 234.337C121.992 233.741 122.584 232.93 122.912 232.003C123.361 230.613 123.469 229.136 123.228 227.695C123.022 226.052 122.692 224.246 122.281 222.375C121.573 219.17 120.634 216.021 119.47 212.952C119.03 211.771 118.641 210.832 118.377 210.179C118.22 209.847 118.089 209.504 117.988 209.151C118.19 209.455 118.364 209.777 118.509 210.112C118.817 210.751 119.243 211.683 119.727 212.85C120.969 215.907 121.951 219.064 122.663 222.287C123.074 224.18 123.397 225.956 123.587 227.659C123.816 229.153 123.672 230.68 123.169 232.106C122.803 233.065 122.15 233.888 121.298 234.462C121.067 234.607 120.821 234.728 120.564 234.821C120.47 234.856 120.371 234.875 120.27 234.88Z" fill="#263238"/>
<path d="M126.347 288.245C134.234 288.245 140.627 281.852 140.627 273.965C140.627 266.078 134.234 259.684 126.347 259.684C118.46 259.684 112.066 266.078 112.066 273.965C112.066 281.852 118.46 288.245 126.347 288.245Z" fill="#455A64"/>
<path d="M126.347 278.859C129.05 278.859 131.241 276.668 131.241 273.965C131.241 271.261 129.05 269.07 126.347 269.07C123.643 269.07 121.452 271.261 121.452 273.965C121.452 276.668 123.643 278.859 126.347 278.859Z" fill="#263238"/>
<path d="M79.439 288.619C87.326 288.619 93.7197 282.226 93.7197 274.339C93.7197 266.452 87.326 260.058 79.439 260.058C71.552 260.058 65.1583 266.452 65.1583 274.339C65.1583 282.226 71.552 288.619 79.439 288.619Z" fill="#455A64"/>
<path d="M79.4391 279.234C82.1424 279.234 84.3338 277.042 84.3338 274.339C84.3338 271.636 82.1424 269.444 79.4391 269.444C76.7358 269.444 74.5443 271.636 74.5443 274.339C74.5443 277.042 76.7358 279.234 79.4391 279.234Z" fill="#263238"/>
<path d="M32.1646 288.619C40.0516 288.619 46.4453 282.226 46.4453 274.339C46.4453 266.452 40.0516 260.058 32.1646 260.058C24.2776 260.058 17.8839 266.452 17.8839 274.339C17.8839 282.226 24.2776 288.619 32.1646 288.619Z" fill="#455A64"/>
<path d="M32.1645 279.234C34.8678 279.234 37.0593 277.042 37.0593 274.339C37.0593 271.636 34.8678 269.444 32.1645 269.444C29.4612 269.444 27.2698 271.636 27.2698 274.339C27.2698 277.042 29.4612 279.234 32.1645 279.234Z" fill="#263238"/>
<path d="M9.98767 273.965C9.9935 268.22 12.2775 262.713 16.3387 258.65C20.3998 254.588 25.9065 252.302 31.6509 252.294H126.67C132.417 252.294 137.929 254.577 141.993 258.641C146.057 262.705 148.34 268.217 148.34 273.965C148.34 279.712 146.057 285.224 141.993 289.288C137.929 293.352 132.417 295.635 126.67 295.635H31.6509C25.9071 295.625 20.4015 293.339 16.3408 289.277C12.2801 285.215 9.99543 279.708 9.98767 273.965ZM31.6509 259.412C27.7875 259.412 24.0823 260.947 21.3505 263.679C18.6187 266.411 17.084 270.116 17.084 273.979C17.084 277.843 18.6187 281.548 21.3505 284.28C24.0823 287.011 27.7875 288.546 31.6509 288.546H126.67C130.533 288.546 134.238 287.011 136.97 284.28C139.702 281.548 141.236 277.843 141.236 273.979C141.236 270.116 139.702 266.411 136.97 263.679C134.238 260.947 130.533 259.412 126.67 259.412H31.6509Z" fill="#263238"/>
<path d="M79.4391 259.412C79.2825 257.099 79.2825 254.777 79.4391 252.463C79.5956 254.777 79.5956 257.099 79.4391 259.412Z" fill="#455A64"/>
<path d="M61.6285 259.412C61.472 257.099 61.472 254.777 61.6285 252.463C61.7851 254.777 61.7851 257.099 61.6285 259.412Z" fill="#455A64"/>
<path d="M43.8181 259.412C43.6615 257.099 43.6615 254.777 43.8181 252.463C43.9747 254.777 43.9747 257.099 43.8181 259.412Z" fill="#455A64"/>
<path d="M27.2698 260.058C26.8201 258.988 26.4401 257.89 26.1324 256.771C25.761 255.67 25.4595 254.548 25.2297 253.41C25.6772 254.482 26.0523 255.582 26.3525 256.705C26.7358 257.8 27.0423 258.92 27.2698 260.058Z" fill="#455A64"/>
<path d="M17.8838 268.952C16.8051 268.534 15.7558 268.044 14.743 267.485C13.6908 266.992 12.6733 266.428 11.6975 265.797C12.7765 266.22 13.8279 266.71 14.8457 267.265C15.8934 267.762 16.9082 268.325 17.8838 268.952Z" fill="#455A64"/>
<path d="M80.3197 288.84C80.4665 291.154 80.4665 293.475 80.3197 295.789C80.1631 293.475 80.1631 291.154 80.3197 288.84Z" fill="#455A64"/>
<path d="M62.5091 288.62C62.6559 290.934 62.6559 293.255 62.5091 295.569C62.3526 293.255 62.3526 290.933 62.5091 288.62Z" fill="#455A64"/>
<path d="M44.6987 288.62C44.8455 290.934 44.8455 293.255 44.6987 295.569C44.5422 293.255 44.5422 290.933 44.6987 288.62Z" fill="#455A64"/>
<path d="M28.1504 288.157C27.9226 289.296 27.6211 290.419 27.2478 291.518C26.9472 292.637 26.5746 293.735 26.1323 294.806C26.6545 292.547 27.3287 290.325 28.1504 288.157Z" fill="#455A64"/>
<path d="M18.2728 279.96C17.2989 280.59 16.2839 281.154 15.2346 281.648C14.2198 282.208 13.1679 282.698 12.0864 283.116C13.0621 282.489 14.0768 281.925 15.1246 281.428C16.1423 280.873 17.1938 280.383 18.2728 279.96Z" fill="#455A64"/>
<path d="M96.4424 288.84C96.5989 291.154 96.5989 293.475 96.4424 295.789C96.2956 293.475 96.2956 291.154 96.4424 288.84Z" fill="#455A64"/>
<path d="M114.253 288.84C114.409 291.154 114.409 293.475 114.253 295.789C114.106 293.475 114.106 291.154 114.253 288.84Z" fill="#455A64"/>
<path d="M130.801 288.157C131.623 290.325 132.297 292.547 132.819 294.806C132.004 292.636 131.33 290.415 130.801 288.157Z" fill="#455A64"/>
<path d="M140.187 279.226C142.317 280.147 144.386 281.203 146.381 282.389C144.247 281.476 142.178 280.42 140.187 279.226Z" fill="#455A64"/>
<path d="M95.5691 259.603C95.4125 257.287 95.4125 254.963 95.5691 252.646C95.7256 254.963 95.7256 257.287 95.5691 259.603Z" fill="#455A64"/>
<path d="M113.38 259.603C113.223 257.287 113.223 254.963 113.38 252.646C113.536 254.963 113.536 257.287 113.38 259.603Z" fill="#455A64"/>
<path d="M129.928 260.058C130.156 258.923 130.455 257.803 130.823 256.705C131.123 255.582 131.498 254.482 131.946 253.41C131.726 254.547 131.434 255.67 131.073 256.771C130.762 257.89 130.38 258.988 129.928 260.058Z" fill="#455A64"/>
<path d="M139.798 268.255C141.793 267.069 143.862 266.013 145.992 265.092C143.997 266.278 141.928 267.334 139.798 268.255Z" fill="#455A64"/>
<path d="M96.5818 82.7385C96.5818 82.7385 96.6405 82.6431 96.7726 82.4669L97.3523 81.6891C97.8734 81.0139 98.6366 80.0159 99.5979 78.7096C101.521 76.0971 104.265 72.2958 107.355 67.3937C110.987 61.6644 114.29 55.7326 117.247 49.6272C118.92 46.1855 120.564 42.5163 122.149 38.6636C123.734 34.8109 125.371 30.804 127.286 26.7972C129.075 22.8645 131.232 19.11 133.729 15.584C136.061 12.3137 138.843 9.38863 141.992 6.89527C144.872 4.63834 148.151 2.94305 151.657 1.89777C154.724 1.00426 157.946 0.771643 161.109 1.21529C163.712 1.57482 166.23 2.39748 168.543 3.64432C170.283 4.58921 171.865 5.79995 173.232 7.23284C174.078 8.15973 174.816 9.17886 175.434 10.271L175.874 11.1369C175.969 11.3351 176.006 11.4378 176.006 11.4378L175.837 11.1516L175.36 10.3077C174.734 9.25329 173.996 8.26919 173.159 7.37227C171.79 5.96848 170.211 4.78739 168.477 3.87182C166.189 2.65973 163.705 1.86456 161.138 1.5235C158.015 1.104 154.838 1.35416 151.819 2.25735C148.358 3.31059 145.123 4.99772 142.279 7.23284C139.133 9.676 136.348 12.5518 134.008 15.7748C131.534 19.2864 129.391 23.0207 127.609 26.9293C125.73 30.9215 124.116 34.9283 122.472 38.7736C120.828 42.619 119.228 46.3102 117.548 49.7813C114.573 55.8877 111.248 61.8173 107.59 67.5405C104.471 72.4279 101.719 76.2146 99.7227 78.7977C98.7466 80.0893 97.9614 81.08 97.4257 81.7331L96.8093 82.4669C96.6332 82.6577 96.5818 82.7385 96.5818 82.7385Z" fill="#263238"/>
<path d="M147.687 40.6156L100.434 79.3701L109.578 88.0662L156.273 51.8948L147.687 40.6156Z" fill="#E0E0E0"/>
<path d="M82.3011 121.009L115.412 93.5701L97.8954 73.2865L59.5225 103.881L82.3011 121.009Z" fill="#EF8354"/>
<path d="M59.4563 124.788L38.3215 141.696L31.2325 133.124L51.4794 116.562L59.4563 124.788Z" fill="#E0E0E0"/>
<path d="M199.676 24.0876L188.418 31.7152L197.507 45.1294L208.765 37.5018L199.676 24.0876Z" fill="#E0E0E0"/>
<path d="M207.723 35.9703L227.999 36.2565L239.249 52.8635L233.767 70.1309L228.887 68.9201L231.419 57.4941L223.082 47.4697L212.809 48.0348L205.8 52.8928L201.383 62.0953L209.301 73.7855L218.753 75.7816L218.65 80.3314L203.07 78.9665L191.079 61.2734L196.466 43.6023L208.816 35.2291" fill="#263238"/>
<path opacity="0.4" d="M75.1281 135.101C82.9451 131.278 86.1831 121.842 82.3603 114.025C78.5376 106.208 69.1017 102.97 61.2848 106.793C53.4678 110.616 50.2298 120.052 54.0525 127.869C57.8753 135.686 67.3111 138.924 75.1281 135.101Z" fill="black"/>
<path d="M81.3501 121.852C85.3305 113.837 82.0598 104.113 74.0449 100.133C66.03 96.1524 56.3059 99.423 52.3255 107.438C48.3451 115.453 51.6158 125.177 59.6307 129.157C67.6456 133.138 77.3697 129.867 81.3501 121.852Z" fill="#263238"/>
<path d="M60.9974 116.613C61.3858 117.768 62.1081 118.783 63.073 119.528C64.0379 120.273 65.202 120.715 66.4182 120.799C67.6344 120.882 68.848 120.603 69.9057 119.997C70.9633 119.391 71.8175 118.485 72.3602 117.393C72.9029 116.302 73.1098 115.074 72.9547 113.864C72.7996 112.655 72.2894 111.519 71.4887 110.6C70.6881 109.681 69.6328 109.02 68.4564 108.7C67.2799 108.381 66.0352 108.417 64.8795 108.805C64.1112 109.062 63.4011 109.467 62.79 109.999C62.1788 110.531 61.6786 111.178 61.318 111.903C60.9574 112.629 60.7434 113.418 60.6884 114.226C60.6334 115.034 60.7384 115.845 60.9974 116.613Z" fill="#455A64"/>
<path d="M92.9785 77.2126C93.1009 77.4485 93.204 77.694 93.2867 77.9465L94.0573 80.0673L96.6331 87.5159L96.6771 87.6333L96.5817 87.7067L91.5402 91.9116C87.8122 95.0011 84.4292 97.7824 82.0002 99.7858L79.0648 102.134L78.2575 102.758C78.1685 102.836 78.0699 102.903 77.964 102.956C77.964 102.956 78.0374 102.853 78.2135 102.699L78.9473 102.017L81.802 99.573C84.2164 97.5256 87.5701 94.7076 91.2907 91.6181L96.3542 87.4351L96.2955 87.626C95.3122 84.6172 94.4682 82.034 93.8518 80.1334C93.5803 79.2527 93.3528 78.5336 93.1767 77.9832C93.0853 77.7335 93.019 77.4754 92.9785 77.2126Z" fill="#263238"/>
<path d="M177.034 9.12622L142.902 36.0658L158.122 57.4061L193.751 29.6226L177.034 9.12622Z" fill="#EF8354"/>
<path opacity="0.4" d="M194.938 23.2819C195.326 16.1471 189.856 10.0489 182.722 9.66129C175.587 9.27363 169.489 14.7433 169.101 21.8781C168.713 29.0129 174.183 35.111 181.318 35.4987C188.453 35.8863 194.551 30.4167 194.938 23.2819Z" fill="black"/>
<path d="M177.613 8.23088C175.468 9.93042 173.874 12.228 173.034 14.833C172.195 17.438 172.146 20.2336 172.895 22.8663C173.644 25.499 175.156 27.8505 177.241 29.6236C179.326 31.3967 181.89 32.5117 184.609 32.8277C187.328 33.1437 190.079 32.6465 192.516 31.3989C194.952 30.1513 196.963 28.2094 198.296 25.8186C199.629 23.4279 200.223 20.6957 200.003 17.9674C199.783 15.2392 198.759 12.6375 197.06 10.4911C194.78 7.6135 191.451 5.75892 187.805 5.33508C184.158 4.91123 180.492 5.95283 177.613 8.23088Z" fill="#263238"/>
<path d="M182.941 14.9603C182.125 15.6062 181.519 16.4796 181.199 17.47C180.879 18.4605 180.861 19.5235 181.145 20.5246C181.43 21.5257 182.005 22.42 182.798 23.0942C183.59 23.7685 184.565 24.1925 185.599 24.3126C186.633 24.4327 187.679 24.2435 188.605 23.769C189.532 23.2945 190.296 22.5559 190.803 21.6467C191.309 20.7375 191.535 19.6985 191.451 18.6612C191.367 17.6238 190.977 16.6347 190.331 15.8189C189.902 15.2766 189.371 14.8241 188.768 14.4874C188.164 14.1507 187.5 13.9363 186.814 13.8565C186.128 13.7768 185.432 13.8332 184.768 14.0226C184.103 14.212 183.482 14.5306 182.941 14.9603Z" fill="#455A64"/>
<path d="M180.424 39.9919C180.124 39.834 179.839 39.6498 179.573 39.4415L177.305 37.8343L169.453 32.1323H169.68L165.571 35.4934C161.542 38.781 157.887 41.7384 155.224 43.8666L152.061 46.369L151.187 47.0295C151.09 47.1115 150.984 47.1829 150.872 47.2423C150.872 47.2423 150.953 47.1395 151.143 46.9708L151.965 46.2369L155.055 43.6391C157.667 41.4375 161.3 38.5021 165.329 35.1852L169.446 31.8315L169.563 31.7434L169.673 31.8241L177.422 37.6435L179.624 39.3534C179.907 39.5445 180.175 39.758 180.424 39.9919Z" fill="#263238"/>
</svg>
